<svg xmlns="http://www.w3.org/2000/svg" width="24" height="24" fill="none">
    <defs>
        <clipPath id="a">
            <rect width="28" height="20" x="-2" y="2" fill="#fff" rx="2.5"/>
        </clipPath>
        <clipPath id="mask">
            <path fill="#fff" fill-rule="evenodd"
                  d="M12 22c5.523 0 10-4.477 10-10S17.523 2 12 2 2 6.477 2 12s4.477 10 10 10" clip-rule="evenodd"/>
        </clipPath>
    </defs>
    <g clip-path="url(#mask)">
        <g clip-path="url(#a)">
        <rect width="28" height="20" x="-2" y="2" fill="#1A47B8" rx="2.5"/>
        <path fill="#fff" fill-rule="evenodd" d="M.979 2H-2v3.333L23.005 22H26v-3.333z" clip-rule="evenodd"/>
        <path fill="#F93939" d="M-1.007 2 26 20.047V22h-.97L-2 3.934V2z"/>
        <path fill="#fff" fill-rule="evenodd" d="M23.334 2H26v3.333S8.68 16.437.667 22H-2v-3.333z" clip-rule="evenodd"/>
        <path fill="#F93939" d="M26 2h-.904L-2 20.063V22h.993L26 3.949z"/>
        <path fill="#fff" fill-rule="evenodd" d="M8.183 2h7.658v6.17H26v7.657H15.84V22H8.184v-6.173H-2V8.169H8.183z"
              clip-rule="evenodd"/>
        <path fill="#F93939" fill-rule="evenodd" d="M9.79 2h4.42v7.692H26v4.616H14.21V22H9.79v-7.692H-2V9.692H9.79z"
              clip-rule="evenodd"/>

        </g>
    </g>
</svg>