<svg xmlns="http://www.w3.org/2000/svg" width="24" height="24" fill="none">
    <defs>
        <clipPath id="mask">
            <path fill="#fff" fill-rule="evenodd" d="M12 22c5.523 0 10-4.477 10-10S17.523 2 12 2 2 6.477 2 12s4.477 10 10 10" clip-rule="evenodd"/>
        </clipPath>
    </defs>
    <g fill-rule="evenodd" clip-rule="evenodd" clip-path="url(#mask)">
        <path fill="#fff" d="M35 24.162h-46.55V-1H35z"/>
        <path fill="#000" d="m3.883 8.095 2.279-2.636.542.466-2.281 2.639zm.747.646 2.279-2.636.542.463L5.17 9.21z"/>
        <path fill="#000" d="m3.883 8.095 2.279-2.636.542.466-2.281 2.639z"/>
        <path fill="#000" d="m3.883 8.095 2.279-2.636.542.466-2.281 2.639zm1.51 1.309 2.28-2.642.542.469L5.933 9.87z"/>
        <path fill="#000" d="m3.883 8.095 2.279-2.636.542.466-2.281 2.639z"/>
        <path fill="#000"
              d="M3.883 8.095 6.162 5.46l.542.466-2.281 2.639zm13.87-2.639 2.264 2.655-.546.464L17.21 5.92zm-1.518 1.295 2.263 2.655-.545.464-2.263-2.655z"/>
        <path fill="#fff" d="m16.614 8.28 2.138-1.848.4.464-2.29 2.055-.253-.67z"/>
        <path fill="#000"
              d="m19.248 14.79-2.192 2.613-.537-.448 2.192-2.611zM17 6.098l2.263 2.655-.542.464-2.26-2.658zm2.991 9.313-2.195 2.611-.54-.447 2.195-2.612zM18.49 14.16l-2.192 2.612-.537-.447 2.192-2.612z"/>
        <path fill="#C70000"
              d="M15.944 11.808c0 2.208-1.772 4.002-3.962 4.002-2.189 0-3.958-1.794-3.958-4.002s1.772-4.005 3.961-4.005 3.959 1.797 3.959 4.005"/>
        <path fill="#3D5897"
              d="M8.082 11.102c.125 1.009.308 2.132 1.859 2.246.58.036 1.712-.136 2.099-1.723.513-1.52 2.045-1.957 3.089-1.134.597.388.76 1 .799 1.464-.047 1.473-.897 2.754-1.985 3.326-1.254.745-2.988.761-4.507-.368-.684-.64-1.64-1.826-1.354-3.811"/>
        <path fill="#fff" d="m17.116 14.753 2.143 1.842-.398.464-2.375-1.958.627-.349z"/>
        <path fill="#000" d="m5.178 14.387 2.263 2.653-.545.463-2.263-2.652z"/>
        <path fill="#fff" d="m4.788 16.57 2.143-1.85.4.463-2.29 2.058-.253-.673z"/>
        <path fill="#000"
              d="M5.93 13.746 8.193 16.4l-.545.463-2.263-2.652zm-1.518 1.295 2.262 2.653-.545.463-2.263-2.652z"/>
    </g>
</svg>