<svg width="24" height="24" fill="none" xmlns="http://www.w3.org/2000/svg"><mask id="a" style="mask-type:alpha" maskUnits="userSpaceOnUse" x="2" y="2" width="20" height="20"><path fill-rule="evenodd" clip-rule="evenodd" d="M12 22c5.523 0 10-4.477 10-10S17.523 2 12 2 2 6.477 2 12s4.477 10 10 10Z" fill="#fff"/></mask><g clip-path="url(#b)" mask="url(#a)"><path d="M22 2H2v20h20V2Z" fill="#009B3A"/><path d="m3.7 12 8.3 5.3 8.3-5.3L12 6.7 3.7 12Z" fill="#FEDF00"/><path d="M12 15.5a3.5 3.5 0 1 0 0-7 3.5 3.5 0 0 0 0 7Z" fill="#002776"/><mask id="c" style="mask-type:luminance" maskUnits="userSpaceOnUse" x="8" y="8" width="8" height="8"><path d="M12 15.5a3.5 3.5 0 1 0 0-7 3.5 3.5 0 0 0 0 7Z" fill="#fff"/></mask><g mask="url(#c)"><path d="M1.5 19a8.5 8.5 0 0 1 17 0H18a8 8 0 0 0-16 0h-.5Z" fill="#fff"/></g><path fill-rule="evenodd" clip-rule="evenodd" d="M9.015 10.977a.143.143 0 0 0 .1-.061.177.177 0 0 0 .029-.123.177.177 0 0 0-.058-.111.143.143 0 0 0-.112-.036.143.143 0 0 0-.099.061.176.176 0 0 0-.03.123.176.176 0 0 0 .059.111c.031.028.071.04.11.036Zm-.008-.062a.082.082 0 0 0 .058-.038.115.115 0 0 0 .017-.076.116.116 0 0 0-.035-.07.082.082 0 0 0-.065-.024.082.082 0 0 0-.058.039.115.115 0 0 0-.017.076.116.116 0 0 0 .035.07.082.082 0 0 0 .065.024ZM9.287 10.947l.061-.004-.008-.124.133-.01a.105.105 0 0 0-.015-.208l-.19.013.019.333Zm.048-.19.129-.009a.043.043 0 0 0-.006-.085l-.129.009.006.085Z" fill="#009B3A"/><path d="M9.57 10.927c-.004-.047-.011-.152-.083-.147l-.09.006c.105-.007.112.098.115.145" fill="#009B3A"/><path fill-rule="evenodd" clip-rule="evenodd" d="m9.71 10.92.156-.002a.144.144 0 0 0 .13-.09.141.141 0 0 0 .01-.055v-.048a.143.143 0 0 0-.146-.14l-.157.002.006.334Zm.06-.062.09-.002a.09.09 0 0 0 .09-.092l-.001-.029a.09.09 0 0 0-.092-.088l-.09.001.003.21Z" fill="#009B3A"/><path d="m10.132 10.916.3.01.002-.061-.242-.008.002-.086.19.006.003-.057-.19-.006.002-.067.228.008.003-.062-.286-.01-.012.333ZM10.555 10.934l.057.005.02-.227.046.233.053.005.086-.222-.02.228.057.005.03-.333-.084-.007-.086.222-.047-.233-.083-.008-.029.332ZM11.246 11.012l.246.043.01-.057-.19-.032.013-.075.155.026.01-.056-.156-.027.01-.051.184.031.01-.056-.241-.041-.051.295Z" fill="#009B3A"/><path fill-rule="evenodd" clip-rule="evenodd" d="m11.879 11.137.06.015.03-.12.13.034a.105.105 0 1 0 .052-.203l-.184-.048-.088.322Zm.106-.165.125.033a.043.043 0 0 0 .047-.064.043.043 0 0 0-.026-.02l-.124-.032-.022.083ZM12.288 11.246l.059.018.037-.118.127.04a.105.105 0 1 0 .063-.2l-.181-.057-.105.317Zm.115-.159.122.039c.011.003.023.002.033-.003a.043.043 0 0 0-.007-.079l-.123-.039-.025.082Z" fill="#009B3A"/><path d="M12.558 11.33c.014-.044.046-.144-.022-.166l-.087-.027c.1.031.069.131.054.177" fill="#009B3A"/><path fill-rule="evenodd" clip-rule="evenodd" d="M12.83 11.429c.038.014.08.01.117-.009a.177.177 0 0 0 .083-.095.177.177 0 0 0 0-.126.143.143 0 0 0-.082-.083.143.143 0 0 0-.117.009.176.176 0 0 0-.082.095.177.177 0 0 0 0 .126c.015.039.045.069.082.083Zm.023-.058a.082.082 0 0 0 .069-.007.117.117 0 0 0 .05-.06.116.116 0 0 0 .002-.08.082.082 0 0 0-.048-.05.081.081 0 0 0-.07.007.116.116 0 0 0-.05.06.116.116 0 0 0-.001.079.082.082 0 0 0 .048.05Z" fill="#009B3A"/><mask id="d" style="mask-type:luminance" maskUnits="userSpaceOnUse" x="13" y="11" width="1" height="1"><path d="m13.086 11.527.133-.305.275.12-.133.305-.275-.12Zm.226-.145-.022.052.137.06.023-.052-.137-.06Z" fill="#fff"/></mask><g mask="url(#d)"><path fill-rule="evenodd" clip-rule="evenodd" d="M13.223 11.587a.142.142 0 0 0 .117-.002.176.176 0 0 0 .087-.09.177.177 0 0 0 .007-.127.143.143 0 0 0-.078-.087.142.142 0 0 0-.117.003.176.176 0 0 0-.087.09.176.176 0 0 0-.006.126c.013.04.04.071.077.087Zm.025-.057c.021.01.046.008.07-.003a.115.115 0 0 0 .053-.058.116.116 0 0 0 .005-.078.082.082 0 0 0-.044-.053.082.082 0 0 0-.07.004.116.116 0 0 0-.053.057.115.115 0 0 0-.006.078.081.081 0 0 0 .045.053Z" fill="#009B3A"/></g><path d="m13.427 11.494-.115-.05-.02.043.116.05.02-.043Z" fill="#009B3A"/><path d="m13.427 11.494-.043-.019-.067.153.044.019.066-.153Z" fill="#009B3A"/><path fill-rule="evenodd" clip-rule="evenodd" d="m13.473 11.699.055.028.055-.111.12.06a.105.105 0 0 0 .093-.188l-.17-.085-.153.296Zm.138-.139.115.058a.043.043 0 0 0 .038-.077l-.115-.057-.038.076Z" fill="#009B3A"/><path d="M13.726 11.825c.021-.042.068-.136.004-.168l-.08-.04c.093.047.046.14.025.183M13.85 11.89l.261.149.03-.054-.21-.12.041-.075.166.094.028-.05-.165-.093.032-.058.2.112.03-.054-.249-.14-.164.29ZM14.336 12.054c-.018.028 0 .06.04.085.04.026.068.025.08.007.036-.058-.175-.141-.11-.24.056-.087.152-.02.188.003.037.023.095.083.05.151l-.062-.039c.02-.03-.002-.059-.034-.08-.03-.019-.056-.028-.075.001-.03.047.176.134.112.234-.046.073-.127.041-.182.007-.046-.03-.115-.1-.07-.17l.063.04ZM14.694 12.29c-.02.028-.003.06.036.087.038.028.066.029.078.011.04-.055-.166-.15-.096-.246.06-.082.152-.01.187.014.035.025.09.088.041.154l-.059-.042c.02-.03.001-.06-.03-.082-.03-.021-.055-.031-.075-.003-.033.044.169.143.1.239-.05.07-.13.035-.182-.003-.045-.032-.11-.104-.061-.172l.06.043Z" fill="#009B3A"/><path fill-rule="evenodd" clip-rule="evenodd" d="M15.032 12.674a.142.142 0 0 0 .114.028.176.176 0 0 0 .107-.065.176.176 0 0 0 .04-.12.143.143 0 0 0-.053-.104.143.143 0 0 0-.114-.028.177.177 0 0 0-.108.065.176.176 0 0 0-.039.12c.003.042.022.08.053.104Zm.039-.048c.018.014.042.02.068.014a.116.116 0 0 0 .066-.042.115.115 0 0 0 .026-.074.082.082 0 0 0-.03-.063.082.082 0 0 0-.068-.014.116.116 0 0 0-.066.042.116.116 0 0 0-.026.074c0 .025.011.048.03.063Z" fill="#009B3A"/><path d="m9.143 11.221-.047.143.072.023" fill="#fff"/><path d="m9.143 11.221.046.143-.071.023" fill="#fff"/><path d="M9.286 11.325h-.15v.075" fill="#fff"/><path d="m9.286 11.325-.122.088-.044-.06" fill="#fff"/><path d="m9 11.325.122.088.044-.06" fill="#fff"/><path d="M9 11.325h.15v.075" fill="#fff"/><path d="m9.231 11.493-.046-.143-.072.023" fill="#fff"/><path d="m9.231 11.493-.121-.088.044-.061" fill="#fff"/><path d="m9.055 11.493.121-.088-.044-.061" fill="#fff"/><path d="m9.055 11.493.046-.143.071.023M9.452 12.693l-.046.143.071.023" fill="#fff"/><path d="m9.452 12.693.047.143-.072.023" fill="#fff"/><path d="M9.595 12.796h-.15v.075" fill="#fff"/><path d="m9.595 12.796-.121.089-.044-.061" fill="#fff"/><path d="m9.31 12.796.121.089.044-.061" fill="#fff"/><path d="M9.31 12.796h.15v.075" fill="#fff"/><path d="m9.54 12.964-.046-.142-.071.023" fill="#fff"/><path d="m9.54 12.964-.12-.088.043-.06" fill="#fff"/><path d="m9.364 12.964.122-.088-.044-.06" fill="#fff"/><path d="m9.364 12.964.047-.142.07.023M9.024 13.032l-.039.119.06.02" fill="#fff"/><path d="m9.024 13.032.038.119-.059.02" fill="#fff"/><path d="M9.143 13.118h-.125v.063" fill="#fff"/><path d="m9.143 13.118-.101.074-.037-.05" fill="#fff"/><path d="m8.905 13.118.101.074.037-.05" fill="#fff"/><path d="M8.905 13.118h.125v.063" fill="#fff"/><path d="m9.097 13.258-.038-.119-.06.02" fill="#fff"/><path d="m9.097 13.258-.1-.073.036-.05" fill="#fff"/><path d="m8.95 13.258.101-.073-.036-.05" fill="#fff"/><path d="m8.95 13.258.039-.119.06.02M9.795 12.557l-.022.068.034.011" fill="#fff"/><path d="m9.795 12.557.022.068-.034.011" fill="#fff"/><path d="M9.863 12.607h-.071v.035" fill="#fff"/><path d="m9.863 12.607-.058.042-.02-.03" fill="#fff"/><path d="m9.727 12.607.058.042.021-.03" fill="#fff"/><path d="M9.727 12.607H9.8v.035" fill="#fff"/><path d="m9.837 12.686-.022-.068-.034.011" fill="#fff"/><path d="m9.837 12.686-.058-.042.021-.028" fill="#fff"/><path d="m9.753 12.686.058-.042-.02-.028" fill="#fff"/><path d="m9.753 12.686.022-.068.034.011M10.18 13.066l-.038.118.06.02" fill="#fff"/><path d="m10.18 13.066.04.118-.06.02" fill="#fff"/><path d="M10.3 13.152h-.125v.062" fill="#fff"/><path d="m10.3 13.152-.101.073-.037-.05" fill="#fff"/><path d="m10.062 13.152.101.073.037-.05" fill="#fff"/><path d="M10.062 13.152h.125v.062" fill="#fff"/><path d="m10.254 13.292-.038-.12-.06.02" fill="#fff"/><path d="m10.254 13.292-.1-.074.036-.05" fill="#fff"/><path d="m10.107 13.292.102-.074-.037-.05" fill="#fff"/><path d="m10.107 13.292.039-.12.06.02M10.076 13.438l-.03.095.047.016" fill="#fff"/><path d="m10.076 13.438.031.095-.047.016" fill="#fff"/><path d="M10.171 13.507h-.1v.05" fill="#fff"/><path d="m10.171 13.507-.08.059-.03-.04" fill="#fff"/><path d="m9.981 13.507.081.059.03-.04" fill="#fff"/><path d="M9.981 13.507h.1v.05" fill="#fff"/><path d="m10.135 13.619-.03-.095-.048.015" fill="#fff"/><path d="m10.135 13.619-.08-.059.029-.04" fill="#fff"/><path d="m10.018 13.619.08-.059-.029-.04" fill="#fff"/><path d="m10.018 13.619.03-.095.048.015M13.086 10.764l-.047.143.072.023" fill="#fff"/><path d="m13.086 10.764.046.143-.071.023" fill="#fff"/><path d="M13.228 10.868h-.15v.075" fill="#fff"/><path d="m13.228 10.868-.121.088-.044-.06" fill="#fff"/><path d="m12.943 10.868.122.088.044-.06" fill="#fff"/><path d="M12.943 10.868h.15v.075" fill="#fff"/><path d="m13.174 11.036-.046-.143-.072.023" fill="#fff"/><path d="m13.174 11.036-.121-.088.044-.061" fill="#fff"/><path d="m12.998 11.036.12-.088-.043-.061" fill="#fff"/><path d="m12.998 11.036.046-.143.071.023M14.452 13.079l-.046.142.071.023" fill="#fff"/><path d="m14.452 13.079.047.142-.072.023" fill="#fff"/><path d="M14.595 13.182h-.15v.075" fill="#fff"/><path d="m14.595 13.182-.121.088-.044-.06" fill="#fff"/><path d="m14.31 13.182.121.088.044-.06" fill="#fff"/><path d="M14.31 13.182h.15v.075" fill="#fff"/><path d="m14.54 13.35-.046-.143-.071.023" fill="#fff"/><path d="m14.54 13.35-.12-.088.043-.06" fill="#fff"/><path d="m14.364 13.35.122-.088-.045-.06" fill="#fff"/><path d="m14.364 13.35.047-.143.07.023M14.938 13.162l-.03.095.047.016" fill="#fff"/><path d="m14.938 13.162.031.095-.047.016" fill="#fff"/><path d="M15.033 13.231h-.1v.05" fill="#fff"/><path d="m15.033 13.231-.08.059-.03-.04" fill="#fff"/><path d="m14.843 13.231.08.059.03-.04" fill="#fff"/><path d="M14.843 13.231h.1v.05" fill="#fff"/><path d="m14.997 13.343-.031-.095-.048.015" fill="#fff"/><path d="m14.997 13.343-.081-.059.03-.04" fill="#fff"/><path d="m14.88 13.343.08-.059-.03-.04" fill="#fff"/><path d="m14.88 13.343.03-.095.048.015M14.595 13.413l-.038.119.059.02" fill="#fff"/><path d="m14.595 13.413.039.119-.06.02" fill="#fff"/><path d="M14.714 13.5h-.125v.062" fill="#fff"/><path d="m14.714 13.5-.101.073-.037-.05" fill="#fff"/><path d="m14.476 13.5.101.073.037-.05" fill="#fff"/><path d="M14.476 13.5h.125v.062" fill="#fff"/><path d="m14.669 13.64-.039-.12-.06.02" fill="#fff"/><path d="m14.669 13.64-.101-.074.036-.05" fill="#fff"/><path d="m14.522 13.64.1-.074-.036-.05" fill="#fff"/><path d="m14.522 13.64.038-.12.06.02M13.752 14.146l-.038.12.06.019" fill="#fff"/><path d="m13.752 14.146.039.12-.06.019" fill="#fff"/><path d="M13.871 14.233h-.125v.062" fill="#fff"/><path d="m13.871 14.233-.1.073-.038-.05" fill="#fff"/><path d="m13.633 14.233.102.073.036-.05" fill="#fff"/><path d="M13.633 14.233h.125v.062" fill="#fff"/><path d="m13.826 14.373-.039-.12-.06.02" fill="#fff"/><path d="m13.826 14.373-.101-.074.036-.05" fill="#fff"/><path d="m13.679 14.373.101-.074-.037-.05" fill="#fff"/><path d="m13.679 14.373.038-.12.06.02M13.748 14.524l-.031.095.047.015" fill="#fff"/><path d="m13.748 14.524.03.095-.047.015" fill="#fff"/><path d="M13.843 14.593h-.1v.05" fill="#fff"/><path d="m13.843 14.593-.081.059-.03-.04" fill="#fff"/><path d="m13.652 14.593.081.059.03-.04" fill="#fff"/><path d="M13.652 14.593h.1v.05" fill="#fff"/><path d="m13.806 14.705-.03-.095-.048.015" fill="#fff"/><path d="m13.806 14.705-.08-.06.029-.04" fill="#fff"/><path d="m13.689 14.705.08-.06-.029-.04" fill="#fff"/><path d="m13.689 14.705.03-.095.048.015M14.1 13.895l-.03.095.047.016" fill="#fff"/><path d="m14.1 13.895.031.095-.048.016" fill="#fff"/><path d="M14.195 13.964h-.1v.05" fill="#fff"/><path d="m14.195 13.964-.08.06-.03-.041" fill="#fff"/><path d="m14.005 13.964.08.06.03-.041" fill="#fff"/><path d="M14.005 13.964h.1v.05" fill="#fff"/><path d="m14.159 14.076-.031-.095-.048.015" fill="#fff"/><path d="m14.159 14.076-.081-.059.03-.04" fill="#fff"/><path d="m14.041 14.076.081-.059-.03-.04" fill="#fff"/><path d="m14.041 14.076.031-.095.048.015M14.38 13.694l-.038.119.06.02" fill="#fff"/><path d="m14.38 13.694.04.119-.06.02" fill="#fff"/><path d="M14.5 13.78h-.125v.063" fill="#fff"/><path d="m14.5 13.78-.101.074-.037-.05" fill="#fff"/><path d="m14.262 13.78.101.074.037-.05" fill="#fff"/><path d="M14.262 13.78h.125v.063" fill="#fff"/><path d="m14.454 13.92-.038-.119-.06.02" fill="#fff"/><path d="m14.454 13.92-.1-.073.036-.05" fill="#fff"/><path d="m14.307 13.92.101-.073-.036-.05" fill="#fff"/><path d="m14.307 13.92.039-.119.06.02M13.738 13.829l-.03.095.047.015" fill="#fff"/><path d="m13.738 13.829.031.095-.047.015" fill="#fff"/><path d="M13.833 13.898h-.1v.05" fill="#fff"/><path d="m13.833 13.898-.08.059-.03-.041" fill="#fff"/><path d="m13.643 13.898.08.059.03-.041" fill="#fff"/><path d="M13.643 13.898h.1v.05" fill="#fff"/><path d="m13.797 14.01-.031-.096-.048.016" fill="#fff"/><path d="m13.797 14.01-.081-.06.03-.04" fill="#fff"/><path d="m13.68 14.01.08-.06-.03-.04" fill="#fff"/><path d="m13.68 14.01.03-.096.048.016M10.667 12.018l-.039.119.06.019" fill="#fff"/><path d="m10.667 12.018.038.119-.06.019" fill="#fff"/><path d="M10.786 12.104h-.125v.063" fill="#fff"/><path d="m10.786 12.104-.102.074-.036-.05" fill="#fff"/><path d="m10.548 12.104.1.074.038-.05" fill="#fff"/><path d="M10.548 12.104h.125v.063" fill="#fff"/><path d="m10.74 12.244-.039-.119-.059.02" fill="#fff"/><path d="m10.74 12.244-.101-.073.037-.051" fill="#fff"/><path d="m10.593 12.244.101-.073-.037-.051" fill="#fff"/><path d="m10.593 12.244.039-.119.06.02M12.952 11.724l-.03.095.047.015" fill="#fff"/><path d="m12.952 11.724.031.095-.047.015" fill="#fff"/><path d="M13.047 11.793h-.1v.05" fill="#fff"/><path d="m13.047 11.793-.08.059-.03-.04" fill="#fff"/><path d="m12.857 11.793.081.059.03-.04" fill="#fff"/><path d="M12.857 11.793h.1v.05" fill="#fff"/><path d="m13.011 11.905-.03-.095-.048.015" fill="#fff"/><path d="m13.011 11.905-.08-.06.029-.04" fill="#fff"/><path d="m12.894 11.905.08-.06-.029-.04" fill="#fff"/><path d="m12.894 11.905.03-.095.048.015M12 13.421l-.046.143.071.023" fill="#fff"/><path d="m12 13.421.046.143-.071.023" fill="#fff"/><path d="M12.143 13.525h-.15v.075" fill="#fff"/><path d="m12.143 13.525-.122.088-.044-.06" fill="#fff"/><path d="m11.857 13.525.122.088.044-.06" fill="#fff"/><path d="M11.857 13.525h.15v.075" fill="#fff"/><path d="m12.088 13.693-.046-.143-.072.023" fill="#fff"/><path d="m12.088 13.693-.121-.088.044-.061" fill="#fff"/><path d="m11.912 13.693.121-.088-.044-.061" fill="#fff"/><path d="m11.912 13.693.046-.143.072.023M12.405 12.751l-.039.12.06.018" fill="#fff"/><path d="m12.405 12.751.038.12-.06.018" fill="#fff"/><path d="M12.524 12.838h-.125v.062" fill="#fff"/><path d="m12.524 12.838-.102.073-.036-.05" fill="#fff"/><path d="m12.286 12.838.1.073.038-.05" fill="#fff"/><path d="M12.286 12.838h.125v.062" fill="#fff"/><path d="m12.478 12.977-.038-.119-.06.02" fill="#fff"/><path d="m12.478 12.977-.101-.073.037-.05" fill="#fff"/><path d="m12.331 12.977.101-.073-.036-.05" fill="#fff"/><path d="m12.331 12.977.039-.119.06.02M12 12.437l-.039.119.06.02" fill="#fff"/><path d="m12 12.437.039.119-.06.02" fill="#fff"/><path d="M12.119 12.523h-.125v.063" fill="#fff"/><path d="m12.119 12.523-.101.074-.037-.05" fill="#fff"/><path d="m11.881 12.523.101.074.037-.05" fill="#fff"/><path d="M11.881 12.523h.125v.063" fill="#fff"/><path d="m12.073 12.663-.038-.119-.06.02" fill="#fff"/><path d="m12.073 12.663-.1-.073.036-.051" fill="#fff"/><path d="m11.927 12.663.1-.073-.036-.051" fill="#fff"/><path d="m11.927 12.663.038-.119.06.02M11.648 12.776l-.031.095.047.016" fill="#fff"/><path d="m11.648 12.776.03.095-.047.016" fill="#fff"/><path d="M11.743 12.845h-.1v.05" fill="#fff"/><path d="m11.743 12.845-.081.06-.03-.041" fill="#fff"/><path d="m11.553 12.845.08.06.03-.041" fill="#fff"/><path d="M11.553 12.845h.1v.05" fill="#fff"/><path d="m11.706 12.957-.03-.095-.048.015" fill="#fff"/><path d="m11.706 12.957-.08-.059.029-.04" fill="#fff"/><path d="m11.589 12.957.08-.059-.029-.04" fill="#fff"/><path d="m11.589 12.957.03-.095.048.015M11.824 13.048l-.022.068.034.01" fill="#fff"/><path d="m11.824 13.048.022.068-.034.01" fill="#fff"/><path d="M11.892 13.097h-.072v.036" fill="#fff"/><path d="m11.892 13.097-.058.042-.021-.029" fill="#fff"/><path d="m11.756 13.097.058.042.02-.029" fill="#fff"/><path d="M11.756 13.097h.071v.036" fill="#fff"/><path d="m11.866 13.177-.022-.068-.034.01" fill="#fff"/><path d="m11.866 13.177-.058-.042.021-.03" fill="#fff"/><path d="m11.782 13.177.058-.042-.021-.03" fill="#fff"/><path d="m11.782 13.177.022-.068.034.01M13.048 14.232l-.039.119.06.02" fill="#fff"/><path d="m13.048 14.232.038.119-.06.02" fill="#fff"/><path d="M13.166 14.319h-.125v.062" fill="#fff"/><path d="m13.166 14.319-.1.073-.037-.05" fill="#fff"/><path d="m12.929 14.319.1.073.038-.05" fill="#fff"/><path d="M12.929 14.319h.125v.062" fill="#fff"/><path d="m13.121 14.458-.039-.119-.059.02" fill="#fff"/><path d="m13.121 14.458-.101-.073.037-.05" fill="#fff"/><path d="m12.974 14.458.101-.073-.036-.05" fill="#fff"/><path d="m12.974 14.458.039-.119.06.02M13.348 13.948l-.031.095.047.015" fill="#fff"/><path d="m13.348 13.948.03.095-.047.015" fill="#fff"/><path d="M13.443 14.017h-.1v.05" fill="#fff"/><path d="m13.443 14.017-.081.059-.03-.04" fill="#fff"/><path d="m13.252 14.017.081.059.03-.04" fill="#fff"/><path d="M13.252 14.017h.1v.05" fill="#fff"/><path d="m13.406 14.129-.03-.096-.048.016" fill="#fff"/><path d="m13.406 14.129-.08-.06.029-.04" fill="#fff"/><path d="m13.289 14.129.08-.06-.029-.04" fill="#fff"/><path d="m13.289 14.129.03-.096.048.016M12.771 13.862l-.03.095.047.015" fill="#fff"/><path d="m12.771 13.862.031.095-.047.015" fill="#fff"/><path d="M12.867 13.931h-.1v.05" fill="#fff"/><path d="m12.867 13.931-.081.059-.03-.04" fill="#fff"/><path d="m12.676 13.931.081.059.03-.04" fill="#fff"/><path d="M12.676 13.931h.1v.05" fill="#fff"/><path d="m12.83 14.043-.03-.095-.048.015" fill="#fff"/><path d="m12.83 14.043-.08-.059.029-.04" fill="#fff"/><path d="m12.713 14.043.08-.059-.029-.04" fill="#fff"/><path d="m12.713 14.043.03-.095.048.015M10.595 13.707l-.046.143.071.023" fill="#fff"/><path d="m10.595 13.707.047.143-.072.023" fill="#fff"/><path d="M10.738 13.81h-.15v.076" fill="#fff"/><path d="m10.738 13.81-.121.089-.045-.06" fill="#fff"/><path d="m10.453 13.81.121.089.044-.06" fill="#fff"/><path d="M10.453 13.81h.15v.076" fill="#fff"/><path d="m10.683 13.979-.046-.143-.071.023" fill="#fff"/><path d="m10.683 13.979-.121-.089.044-.06" fill="#fff"/><path d="m10.507 13.979.121-.089-.044-.06" fill="#fff"/><path d="m10.507 13.979.046-.143.072.023M12 14.688l-.015.048.023.007" fill="#fff"/><path d="m12 14.688.015.048-.023.007" fill="#fff"/><path d="M12.047 14.723h-.05v.025" fill="#fff"/><path d="m12.047 14.723-.04.029-.015-.02" fill="#fff"/><path d="m11.952 14.723.04.029.015-.02" fill="#fff"/><path d="M11.952 14.723h.05v.025" fill="#fff"/><path d="m12.03 14.779-.016-.048-.024.008" fill="#fff"/><path d="m12.03 14.779-.041-.03.014-.02" fill="#fff"/><path d="m11.97 14.779.041-.03-.015-.02" fill="#fff"/><path d="m11.97 14.779.016-.048.024.008" fill="#fff"/></g><defs><clipPath id="b"><path fill="#fff" transform="translate(2 2)" d="M0 0h20v20H0z"/></clipPath></defs></svg>