<svg xmlns="http://www.w3.org/2000/svg" width="24" height="24" fill="none">
    <defs>
        <clipPath id="mask">
            <path fill="#fff" fill-rule="evenodd" d="M12 22c5.523 0 10-4.477 10-10S17.523 2 12 2 2 6.477 2 12s4.477 10 10 10" clip-rule="evenodd"/>
        </clipPath>
    </defs>
    <g clip-path="url(#mask)">
        <path fill="red" d="M12 2h10v20H12z"/>
        <path fill="#060" d="M2 2h10v20H2z"/>
        <path fill="#FF0" fill-rule="evenodd" stroke="#000" stroke-linecap="round" stroke-linejoin="round"
              stroke-width=".07"
              d="M16.804 15.862c-1.884-.059-10.5-5.437-10.558-6.3l.472-.788c.858 1.243 9.666 6.475 10.535 6.289z"
              clip-rule="evenodd"/>
        <path fill="#FF0" fill-rule="evenodd" stroke="#000" stroke-linecap="round" stroke-linejoin="round"
              stroke-width=".07"
              d="M6.62 8.663c-.17.455 2.25 1.949 5.156 3.722 2.91 1.767 5.419 2.858 5.6 2.707l.087-.164c-.035.059-.116.076-.25.035-.788-.227-2.836-1.166-5.373-2.706-2.543-1.54-4.748-2.958-5.093-3.559a.4.4 0 0 1-.035-.18h-.011l-.07.128zm10.225 7.222c-.03.058-.093.058-.204.047-.7-.076-2.835-1.115-5.361-2.625-2.94-1.762-5.367-3.36-5.098-3.78l.07-.129.011.006c-.233.712 4.79 3.582 5.087 3.768 2.905 1.797 5.355 2.853 5.57 2.579z"
              clip-rule="evenodd"/>
        <path fill="#FF0" fill-rule="evenodd"
              d="M11.945 10.087c1.878-.018 4.2-.257 5.542-.794l-.292-.466c-.788.437-3.12.729-5.267.77-2.532-.024-4.323-.263-5.221-.864l-.269.502c1.645.7 3.337.846 5.507.852"
              clip-rule="evenodd"/>
        <path stroke="#000" stroke-linecap="round" stroke-linejoin="round" stroke-width=".07"
              d="M11.945 10.087c1.878-.018 4.2-.257 5.542-.794l-.292-.466c-.788.437-3.12.729-5.267.77-2.532-.024-4.323-.263-5.221-.864l-.269.502c1.645.7 3.337.846 5.507.852"/>
        <path fill="#FF0" fill-rule="evenodd"
              d="M17.562 9.305c-.046.076-.921.373-2.205.595a22 22 0 0 1-3.418.25 24 24 0 0 1-3.278-.21c-1.348-.21-2.042-.5-2.304-.606l.064-.128c.74.291 1.44.466 2.257.595q1.621.217 3.255.216a23 23 0 0 0 3.401-.251c1.313-.216 2.03-.49 2.135-.613l.093.158zm-.256-.473c-.14.117-.852.368-2.1.566a23 23 0 0 1-3.255.234c-1.284 0-2.34-.094-3.139-.21-1.271-.164-1.948-.467-2.193-.549l.076-.128c.192.1.84.362 2.13.542 1.035.14 2.08.205 3.126.199 1.081 0 2.161-.078 3.231-.234 1.255-.175 1.931-.49 2.036-.571zM5.767 12.35c1.155.624 3.728.933 6.16.957 2.217.005 5.099-.339 6.178-.91l-.03-.625c-.338.525-3.43 1.033-6.17 1.015-2.743-.023-5.292-.443-6.143-.991v.554"
              clip-rule="evenodd"/>
        <path stroke="#000" stroke-linecap="round" stroke-linejoin="round" stroke-width=".07"
              d="M5.767 12.35c1.155.624 3.728.933 6.16.957 2.217.005 5.099-.339 6.178-.91l-.03-.625c-.338.525-3.43 1.033-6.17 1.015-2.743-.023-5.292-.443-6.143-.991v.554m11.8-3.045c-.046.076-.921.373-2.205.595a22 22 0 0 1-3.418.25 24 24 0 0 1-3.278-.21c-1.348-.21-2.042-.5-2.304-.606l.064-.128c.74.291 1.44.466 2.257.595q1.621.217 3.255.216a23 23 0 0 0 3.401-.251c1.313-.216 2.03-.49 2.135-.613l.093.158zm-.256-.473c-.14.117-.852.368-2.1.566a23 23 0 0 1-3.255.234c-1.284 0-2.34-.094-3.139-.21-1.271-.164-1.948-.467-2.193-.549l.076-.128c.192.1.84.362 2.13.542 1.035.14 2.08.205 3.126.199 1.081 0 2.161-.078 3.231-.234 1.255-.175 1.931-.49 2.036-.571z"/>
        <path fill="#FF0" fill-rule="evenodd"
              d="M18.163 12.262v.146c-.163.199-1.178.49-2.45.7a25 25 0 0 1-3.815.257c-1.21.01-2.42-.074-3.616-.251a9 9 0 0 1-2.59-.7v-.17c.565.374 2.094.654 2.607.736.922.14 2.106.245 3.6.245 1.569 0 2.823-.111 3.791-.257.916-.134 2.217-.478 2.473-.706m0-.525v.146c-.163.193-1.178.484-2.45.694a25 25 0 0 1-3.815.263c-1.21.007-2.419-.077-3.616-.25a9 9 0 0 1-2.59-.7v-.176c.565.38 2.1.653 2.607.735 1.192.175 2.395.258 3.6.25 1.569 0 2.829-.116 3.791-.262.916-.128 2.217-.472 2.473-.7m-6.241 4.014c-2.66-.012-4.941-.724-5.425-.84l.35.548c1.636.58 3.362.862 5.098.834 2.024-.058 3.792-.216 5.034-.822l.362-.572c-.846.403-3.734.852-5.425.852"
              clip-rule="evenodd"/>
        <path stroke="#000" stroke-linecap="round" stroke-linejoin="round" stroke-width=".07"
              d="M11.922 15.75c-2.66-.011-4.941-.723-5.425-.84l.35.549c1.636.58 3.362.862 5.098.834 2.024-.058 3.792-.216 5.034-.822l.362-.572c-.846.403-3.734.852-5.425.852m6.247-3.489v.146c-.163.199-1.178.49-2.45.7a25 25 0 0 1-3.815.257c-1.21.01-2.42-.074-3.616-.251a9 9 0 0 1-2.59-.7v-.17c.565.374 2.094.654 2.607.736.922.14 2.106.245 3.6.245 1.569 0 2.823-.111 3.791-.257.916-.134 2.217-.478 2.473-.706m0-.525v.146c-.163.193-1.178.484-2.45.694a25 25 0 0 1-3.815.263c-1.21.007-2.419-.077-3.616-.25a9 9 0 0 1-2.59-.7v-.176c.565.38 2.1.653 2.607.735 1.192.175 2.395.258 3.6.25 1.569 0 2.829-.116 3.791-.262.916-.128 2.217-.472 2.473-.7"/>
        <path fill="#FF0" fill-rule="evenodd" stroke="#000" stroke-linecap="round" stroke-linejoin="round"
              stroke-width=".07"
              d="M17.12 15.342a9 9 0 0 1-.164.234c-.584.21-1.517.431-1.902.49-1.033.192-2.081.29-3.132.291-2.357-.035-4.288-.495-5.192-.892l-.076-.123.012-.023.122.052c1.66.55 3.397.835 5.145.846 1.097 0 2.188-.122 3.069-.28 1.353-.274 1.901-.478 2.07-.571l.041-.024zm.308-.513-.116.204c-.315.117-1.167.362-2.41.537-.816.11-1.324.221-2.951.25a20.3 20.3 0 0 1-5.495-.816l-.064-.146a22.8 22.8 0 0 0 5.565.817c1.487-.03 2.123-.14 2.934-.251 1.446-.222 2.176-.467 2.391-.53v-.012l.152-.059z"
              clip-rule="evenodd"/>
        <path fill="#FF0" fill-rule="evenodd"
              d="M17.463 11.86c.006 1.75-.892 3.325-1.61 4.013a5.8 5.8 0 0 1-3.955 1.645c-1.767.03-3.43-1.12-3.879-1.627a5.9 5.9 0 0 1-1.604-3.932c.105-1.913.857-3.243 1.942-4.159a5.8 5.8 0 0 1 3.745-1.324 5.73 5.73 0 0 1 4.142 2.076c.73.887 1.05 1.85 1.22 3.308M11.91 5.875a6.183 6.183 0 0 1 6.183 6.137 6.165 6.165 0 1 1-12.331 0C5.756 8.628 8.52 5.875 11.91 5.875"
              clip-rule="evenodd"/>
        <path stroke="#000" stroke-linecap="round" stroke-linejoin="round" stroke-width=".07"
              d="M11.91 5.875a6.183 6.183 0 0 1 6.183 6.137 6.165 6.165 0 1 1-12.331 0C5.756 8.628 8.52 5.875 11.91 5.875m5.553 5.985c.006 1.75-.892 3.325-1.61 4.013a5.8 5.8 0 0 1-3.955 1.645c-1.767.03-3.43-1.12-3.879-1.627a5.9 5.9 0 0 1-1.604-3.932c.105-1.913.857-3.243 1.942-4.159a5.8 5.8 0 0 1 3.745-1.324 5.73 5.73 0 0 1 4.142 2.076c.73.887 1.05 1.85 1.22 3.308"/>
        <path fill="#FF0" fill-rule="evenodd" stroke="#000" stroke-linecap="round" stroke-linejoin="round"
              stroke-width=".07"
              d="M11.928 5.846a6.17 6.17 0 0 1 6.16 6.16c0 3.395-2.766 6.16-6.155 6.16s-6.16-2.765-6.16-6.16a6.17 6.17 0 0 1 6.16-6.16zM5.902 12c0 3.313 2.724 6.026 6.026 6.026s6.025-2.713 6.025-6.026-2.724-6.026-6.025-6.026S5.902 8.687 5.902 12"
              clip-rule="evenodd"/>
        <path fill="#FF0" fill-rule="evenodd" stroke="#000" stroke-linecap="round" stroke-linejoin="round"
              stroke-width=".07"
              d="M11.933 6.36A5.66 5.66 0 0 1 17.574 12a5.664 5.664 0 0 1-5.64 5.647c-3.092 0-5.642-2.544-5.642-5.647a5.664 5.664 0 0 1 5.641-5.64M6.427 12c0 3.033 2.485 5.507 5.506 5.507S17.44 15.027 17.44 12c0-3.033-2.485-5.507-5.507-5.507A5.53 5.53 0 0 0 6.427 12"
              clip-rule="evenodd"/>
        <path fill="#FF0" fill-rule="evenodd" stroke="#000" stroke-linecap="round" stroke-linejoin="round"
              stroke-width=".07" d="M12.184 5.817h-.53V18.2h.524z" clip-rule="evenodd"/>
        <path fill="#FF0" fill-rule="evenodd" stroke="#000" stroke-linecap="round" stroke-linejoin="round"
              stroke-width=".07" d="M12.126 5.747h.134V18.27h-.128V5.747zm-.525 0h.14V18.27h-.134V5.747z"
              clip-rule="evenodd"/>
        <path fill="#FF0" fill-rule="evenodd" stroke="#000" stroke-linecap="round" stroke-linejoin="round"
              stroke-width=".07"
              d="M18.093 12.245v-.455l-.373-.35-2.117-.56-3.046-.31-3.675.188-2.613.618-.525.39v.461l1.336-.6 3.173-.496h3.051l2.24.245 1.552.373z"
              clip-rule="evenodd"/>
        <path fill="#FF0" fill-rule="evenodd"
              d="M11.933 11.055c1.453 0 2.859.134 3.985.35 1.155.233 1.965.525 2.245.846v.163c-.338-.408-1.429-.7-2.275-.875a22 22 0 0 0-3.96-.35c-1.523 0-2.946.152-4.043.362-.875.175-2.048.525-2.193.863v-.17c.075-.232.95-.582 2.175-.833 1.103-.216 2.526-.356 4.06-.356zm0-.53c1.336-.004 2.67.114 3.985.35 1.155.232 1.965.524 2.245.85v.158c-.338-.402-1.429-.7-2.275-.869-1.108-.216-2.508-.35-3.96-.35a22 22 0 0 0-4.037.362c-.846.157-2.065.519-2.2.857v-.163c.082-.233.969-.6 2.176-.834 1.109-.216 2.526-.362 4.066-.362m-.035-2.696c2.293-.012 4.294.32 5.21.788l.332.583c-.793-.432-2.952-.875-5.536-.817-2.106.018-4.357.234-5.483.84l.396-.665c.928-.484 3.11-.729 5.081-.729"
              clip-rule="evenodd"/>
        <path stroke="#000" stroke-linecap="round" stroke-linejoin="round" stroke-width=".07"
              d="M11.898 7.83c2.293-.013 4.294.32 5.21.787l.332.583c-.793-.432-2.952-.875-5.536-.817-2.106.018-4.357.234-5.483.84l.396-.665c.928-.484 3.11-.729 5.081-.729m.035 3.226c1.453 0 2.859.134 3.985.35 1.155.233 1.965.525 2.245.846v.163c-.338-.408-1.429-.7-2.275-.875a22 22 0 0 0-3.96-.35c-1.523 0-2.946.152-4.043.362-.875.175-2.048.525-2.193.863v-.17c.075-.232.95-.582 2.175-.833 1.103-.216 2.526-.356 4.06-.356zm0-.53c1.336-.004 2.67.114 3.985.35 1.155.232 1.965.524 2.245.85v.158c-.338-.402-1.429-.7-2.275-.869-1.108-.216-2.508-.35-3.96-.35a22 22 0 0 0-4.037.362c-.846.157-2.065.519-2.2.857v-.163c.082-.233.969-.6 2.176-.834 1.109-.216 2.526-.362 4.066-.362"/>
        <path fill="#FF0" fill-rule="evenodd"
              d="M11.933 8.308c1.197-.02 2.394.063 3.576.25.933.175 1.826.432 1.954.572l.1.175c-.31-.198-1.085-.426-2.077-.612-.992-.187-2.258-.251-3.559-.245-1.475-.006-2.624.07-3.604.245a6.4 6.4 0 0 0-1.943.6l.1-.18c.35-.175.892-.391 1.813-.56 1.021-.187 2.182-.24 3.64-.245m0-.525c1.249-.012 2.485.058 3.448.233a5.6 5.6 0 0 1 1.785.583l.146.234c-.245-.275-1.167-.537-1.99-.677-.956-.17-2.14-.233-3.389-.245a21 21 0 0 0-3.47.257c-.6.083-1.184.262-1.727.53l.128-.192c.339-.175.887-.338 1.575-.473a21 21 0 0 1 3.494-.256zm3.057 6.784a16 16 0 0 0-3.062-.234c-3.821.047-5.052.788-5.204 1.01l-.292-.467c.98-.7 3.057-1.097 5.519-1.062 1.277.024 2.38.111 3.301.292l-.262.466"
              clip-rule="evenodd"/>
        <path stroke="#000" stroke-linecap="round" stroke-linejoin="round" stroke-width=".07"
              d="M14.99 14.567a16 16 0 0 0-3.062-.234c-3.821.047-5.052.788-5.204 1.01l-.292-.467c.98-.7 3.057-1.097 5.519-1.062 1.277.024 2.38.111 3.301.292l-.262.466m-3.057-6.264c1.197-.02 2.394.063 3.576.25.933.175 1.826.432 1.954.572l.1.175c-.31-.198-1.085-.426-2.077-.612-.992-.187-2.258-.251-3.559-.245-1.475-.006-2.624.07-3.604.245a6.4 6.4 0 0 0-1.943.6l.1-.18c.35-.175.892-.391 1.813-.56 1.021-.187 2.182-.24 3.64-.245m0-.525c1.249-.012 2.485.058 3.448.233a5.6 5.6 0 0 1 1.785.583l.146.234c-.245-.275-1.167-.537-1.99-.677-.956-.17-2.14-.233-3.389-.245a21 21 0 0 0-3.47.257c-.6.083-1.184.262-1.727.53l.128-.192c.339-.175.887-.338 1.575-.473a21 21 0 0 1 3.494-.256z"/>
        <path fill="#FF0" fill-rule="evenodd" stroke="#000" stroke-linecap="round" stroke-linejoin="round"
              stroke-width=".07"
              d="M11.91 14.27c1.062.017 2.1.058 3.11.244l-.07.129c-.934-.176-1.938-.234-3.034-.234-1.418-.011-2.841.123-4.084.478-.39.111-1.038.362-1.108.572l-.07-.117c.023-.128.408-.385 1.143-.583 1.424-.408 2.754-.484 4.113-.49m.047-.537c1.12-.002 2.239.096 3.342.291l-.076.134a17.5 17.5 0 0 0-3.266-.285c-1.412 0-2.911.104-4.276.501-.438.128-1.202.409-1.225.624l-.07-.128c.011-.198.67-.46 1.266-.63 1.37-.402 2.875-.502 4.305-.508"
              clip-rule="evenodd"/>
        <path fill="#FF0" fill-rule="evenodd" stroke="#000" stroke-linecap="round" stroke-linejoin="round"
              stroke-width=".07"
              d="m17.382 14.946-.455.717-1.325-1.172-3.418-2.304-3.862-2.118-2-.682.425-.794.146-.076 1.243.31 4.107 2.117 2.368 1.493 1.989 1.43.81.933z"
              clip-rule="evenodd"/>
        <path fill="#FF0" fill-rule="evenodd" stroke="#000" stroke-linecap="round" stroke-linejoin="round"
              stroke-width=".07"
              d="M6.252 9.404c.35-.233 2.928.91 5.635 2.543 2.689 1.634 5.267 3.477 5.034 3.821l-.076.123-.035.029c.006-.006.047-.058 0-.18-.117-.38-1.948-1.838-4.976-3.67-2.957-1.756-5.419-2.818-5.658-2.514zm11.223 5.536c.222-.443-2.17-2.246-5.14-4.002-3.033-1.72-5.226-2.736-5.628-2.432l-.082.169c0 .006 0-.012.023-.03.07-.058.193-.058.245-.058.689.012 2.654.916 5.414 2.497 1.213.7 5.11 3.208 5.092 3.908 0 .059.006.07-.017.105l.099-.151z"
              clip-rule="evenodd"/>
        <path fill="#fff" stroke="#000" stroke-width=".087"
              d="M8.237 12.687a3.65 3.65 0 0 0 1.09 2.594 3.67 3.67 0 0 0 2.6 1.095 3.696 3.696 0 0 0 3.696-3.683V7.765l-7.386-.013z"/>
        <path fill="red" stroke="#000" stroke-width=".062"
              d="M8.374 12.693a3.5 3.5 0 0 0 1.046 2.489 3.55 3.55 0 0 0 2.5 1.045 3.54 3.54 0 0 0 3.541-3.522V7.914H8.387v4.779zM14.05 9.35v3.043l-.006.317a2.07 2.07 0 0 1-.622 1.494c-.396.397-.933.62-1.494.622a2.1 2.1 0 0 1-1.487-.635 2.12 2.12 0 0 1-.622-1.493v-3.36z"/>
        <path fill="#FF0" d="M8.835 9.165c.006-.343.249-.423.249-.423.006 0 .267.087.267.429h-.516"/>
        <path fill="#FF0" stroke="#000" stroke-width=".047"
              d="m8.623 8.748-.043.392h.26c0-.324.25-.374.25-.374.006 0 .249.069.255.374h.261l-.05-.398h-.933zm-.062.398h1.058c.018 0 .037.019.037.044 0 .03-.019.05-.037.05H8.56c-.019 0-.037-.02-.037-.05 0-.025.018-.044.043-.044z"/>
        <path fill="#FF0"
              d="M8.947 9.14c0-.206.143-.262.143-.262s.143.063.143.262zm-.361-.56H9.6c.019 0 .037.025.037.05a.04.04 0 0 1-.037.037H8.586c-.019 0-.038-.019-.038-.044a.04.04 0 0 1 .038-.037zm.025.093h.958c.018 0 .037.019.037.044s-.019.043-.037.043h-.965c-.025 0-.037-.019-.037-.043 0-.025.012-.044.037-.044zm.31-.66h.075v.05h.056v-.05h.081v.056h.056v-.062h.075v.125c0 .025-.013.037-.031.037h-.274c-.019 0-.037-.012-.037-.031zm.287.168.019.399h-.268l.019-.405h.23"/>
        <path stroke="#000" stroke-width=".047"
              d="m9.208 8.181.019.399h-.268l.019-.405h.23m-.261.965c0-.206.143-.262.143-.262s.143.063.143.262zm-.361-.56H9.6c.019 0 .037.025.037.05a.04.04 0 0 1-.037.037H8.586c-.019 0-.038-.019-.038-.044a.04.04 0 0 1 .038-.037zm.025.093h.958c.018 0 .037.019.037.044s-.019.043-.037.043h-.965c-.025 0-.037-.019-.037-.043 0-.025.012-.044.037-.044zm.31-.66h.075v.05h.056v-.05h.081v.056h.056v-.062h.075v.125c0 .025-.013.037-.031.037h-.274c-.019 0-.037-.012-.037-.031z"/>
        <path fill="#FF0" stroke="#000" stroke-width=".047"
              d="M8.884 8.368v.212h-.248v-.212zM9.542 8.368v.212h-.248v-.212zM8.592 8.206h.075v.063h.056v-.063h.074v.063h.056v-.063h.075v.125c0 .025-.013.037-.031.037h-.268a.037.037 0 0 1-.037-.037zM9.25 8.206h.075v.063h.056v-.063h.074v.063h.056v-.063h.075v.125q-.001.037-.031.037h-.268a.037.037 0 0 1-.037-.037z"/>
        <path fill="#000" d="M9.065 8.306c0-.037.056-.037.056 0v.1h-.056zM8.735 8.443c0-.038.05-.038.05 0v.074h-.05z"/>
        <path fill="#FF0" d="M11.544 9.165c.007-.343.25-.423.25-.423.005 0 .267.087.267.429h-.517"/>
        <path fill="#FF0" stroke="#000" stroke-width=".047"
              d="m11.333 8.748-.044.392h.262c0-.324.248-.374.248-.374.007 0 .25.069.256.374h.26l-.049-.398h-.933zm-.062.398h1.057c.02 0 .038.019.038.044 0 .03-.019.05-.038.05h-1.057c-.02 0-.038-.02-.038-.05 0-.025.019-.044.044-.044z"/>
        <path fill="#FF0"
              d="M11.656 9.14c0-.206.143-.262.143-.262s.144.063.144.262zm-.36-.56h1.014c.018 0 .037.025.037.05 0 .018-.019.037-.037.037h-1.014c-.02 0-.038-.019-.038-.044a.04.04 0 0 1 .038-.037zm.024.093h.959c.018 0 .037.019.037.044s-.019.043-.037.043h-.965c-.025 0-.037-.019-.037-.043 0-.025.012-.044.037-.044zm.312-.66h.074v.05h.056v-.05h.081v.056h.056v-.062h.075v.125q-.002.037-.031.037h-.274c-.019 0-.037-.012-.037-.031zm.286.168.018.399h-.267l.018-.405h.23"/>
        <path stroke="#000" stroke-width=".047"
              d="m11.918 8.181.018.399h-.267l.018-.405h.23m-.26.965c0-.206.143-.262.143-.262s.143.063.143.262zm-.361-.56h1.014c.018 0 .037.025.037.05 0 .018-.019.037-.037.037h-1.014c-.02 0-.038-.019-.038-.044a.04.04 0 0 1 .038-.037zm.024.093h.959c.018 0 .037.019.037.044s-.019.043-.037.043h-.965c-.025 0-.037-.019-.037-.043 0-.025.012-.044.037-.044zm.312-.66h.074v.05h.056v-.05h.081v.056h.056v-.062h.075v.125q-.002.037-.031.037h-.274c-.019 0-.037-.012-.037-.031z"/>
        <path fill="#FF0" stroke="#000" stroke-width=".047"
              d="M11.594 8.368v.212h-.249v-.212zM12.252 8.368v.212h-.249v-.212zM11.302 8.206h.074v.063h.056v-.063h.075v.063h.056v-.063h.075v.125c0 .025-.013.037-.031.037h-.268a.037.037 0 0 1-.037-.037zM11.96 8.206h.074v.063h.056v-.063h.075v.063h.056v-.063h.075v.125q-.002.037-.031.037h-.268a.037.037 0 0 1-.037-.037z"/>
        <path fill="#000"
              d="M11.775 8.306c0-.037.056-.037.056 0v.1h-.056zM11.445 8.443c0-.038.05-.038.05 0v.074h-.05z"/>
        <path fill="#FF0" d="M14.461 9.165c.006-.343.249-.423.249-.423.006 0 .267.087.267.429h-.516"/>
        <path fill="#FF0" stroke="#000" stroke-width=".047"
              d="m14.25 8.748-.044.392h.261c0-.324.25-.374.25-.374.005 0 .248.069.254.374h.262l-.05-.398h-.934zm-.063.398h1.058c.019 0 .037.019.037.044 0 .03-.018.05-.037.05h-1.058c-.018 0-.037-.02-.037-.05 0-.025.019-.044.043-.044z"/>
        <path fill="#FF0"
              d="M14.573 9.14c0-.206.143-.262.143-.262s.143.063.143.262zm-.36-.56h1.013c.019 0 .038.025.038.05a.04.04 0 0 1-.038.037h-1.014c-.018 0-.037-.019-.037-.044a.04.04 0 0 1 .037-.037zm.024.093h.958c.019 0 .038.019.038.044s-.02.043-.038.043h-.964c-.025 0-.037-.019-.037-.043 0-.025.012-.044.037-.044zm.311-.66h.075v.05h.056v-.05h.08v.056h.057v-.062h.074v.125q-.002.037-.03.037h-.274c-.02 0-.038-.012-.038-.031zm.286.168.019.399h-.268l.02-.405h.23"/>
        <path stroke="#000" stroke-width=".047"
              d="m14.834 8.181.019.399h-.268l.02-.405h.23m-.262.965c0-.206.143-.262.143-.262s.143.063.143.262zm-.36-.56h1.013c.019 0 .038.025.038.05a.04.04 0 0 1-.038.037h-1.014c-.018 0-.037-.019-.037-.044a.04.04 0 0 1 .037-.037zm.024.093h.958c.019 0 .038.019.038.044s-.02.043-.038.043h-.964c-.025 0-.037-.019-.037-.043 0-.025.012-.044.037-.044zm.311-.66h.075v.05h.056v-.05h.08v.056h.057v-.062h.074v.125q-.002.037-.03.037h-.274c-.02 0-.038-.012-.038-.031z"/>
        <path fill="#FF0" stroke="#000" stroke-width=".047"
              d="M14.51 8.368v.212h-.248v-.212zM15.169 8.368v.212h-.249v-.212z"/>
        <path fill="#FF0" stroke="#000" stroke-width=".047"
              d="M14.218 8.206h.075v.063h.056v-.063h.075v.063h.056v-.063h.074v.125q-.001.037-.03.037h-.268a.037.037 0 0 1-.038-.037zM14.876 8.206h.075v.063h.056v-.063h.075v.063h.056v-.063h.074v.125q-.001.037-.03.037h-.268a.037.037 0 0 1-.038-.037z"/>
        <path fill="#000"
              d="M14.691 8.306c0-.037.056-.037.056 0v.1h-.056zM14.362 8.443c0-.038.05-.038.05 0v.074h-.05z"/>
        <path fill="#FF0" d="M14.461 12.107c.006-.342.249-.423.249-.423.006 0 .267.087.267.43h-.516"/>
        <path fill="#FF0" stroke="#000" stroke-width=".047"
              d="m14.25 11.69-.044.393h.261c0-.324.25-.374.25-.374.005 0 .248.069.254.373h.262l-.05-.398h-.934zm-.063.399h1.058c.019 0 .037.018.037.043 0 .031-.018.05-.037.05h-1.058c-.018 0-.037-.019-.037-.05 0-.025.019-.043.043-.043z"/>
        <path fill="#FF0"
              d="M14.573 12.082c0-.205.143-.26.143-.26s.143.061.143.26zm-.36-.56h1.013c.019 0 .038.025.038.05a.04.04 0 0 1-.038.038h-1.014c-.018 0-.037-.02-.037-.044 0-.019.018-.037.037-.037zm.024.094h.958c.019 0 .038.018.038.043s-.02.044-.038.044h-.964c-.025 0-.037-.019-.037-.044s.012-.043.037-.043zm.311-.66h.075v.05h.056v-.05h.08v.056h.057v-.062h.074v.124q-.002.038-.03.038h-.274c-.02 0-.038-.013-.038-.031zm.286.168.019.398h-.268l.02-.404h.23"/>
        <path stroke="#000" stroke-width=".047"
              d="m14.834 11.124.019.398h-.268l.02-.404h.23m-.262.964c0-.205.143-.26.143-.26s.143.061.143.26zm-.36-.56h1.013c.019 0 .038.025.038.05a.04.04 0 0 1-.038.038h-1.014c-.018 0-.037-.02-.037-.044 0-.019.018-.037.037-.037zm.024.094h.958c.019 0 .038.018.038.043s-.02.044-.038.044h-.964c-.025 0-.037-.019-.037-.044s.012-.043.037-.043zm.311-.66h.075v.05h.056v-.05h.08v.056h.057v-.062h.074v.124q-.002.038-.03.038h-.274c-.02 0-.038-.013-.038-.031z"/>
        <path fill="#FF0" stroke="#000" stroke-width=".047"
              d="M14.51 11.31v.212h-.248v-.211zM15.169 11.31v.212h-.249v-.211z"/>
        <path fill="#FF0" stroke="#000" stroke-width=".047"
              d="M14.218 11.15h.075v.061h.056v-.062h.075v.062h.056v-.062h.074v.125q-.001.036-.03.037h-.268a.037.037 0 0 1-.038-.037zM14.876 11.15h.075v.061h.056v-.062h.075v.062h.056v-.062h.074v.125q-.001.036-.03.037h-.268a.037.037 0 0 1-.038-.037z"/>
        <path fill="#000"
              d="M14.691 11.249c0-.038.056-.038.056 0v.1h-.056zM14.362 11.386c0-.038.05-.038.05 0v.074h-.05z"/>
        <path fill="#FF0" d="M8.861 12.107c.006-.342.249-.423.249-.423.006 0 .268.087.268.43H8.86"/>
        <path fill="#FF0" stroke="#000" stroke-width=".047"
              d="m8.65 11.69-.044.393h.261c0-.324.25-.374.25-.374.005 0 .248.069.254.373h.262l-.05-.398h-.934zm-.063.399h1.058c.019 0 .037.018.037.043 0 .031-.018.05-.037.05H8.587c-.018 0-.037-.019-.037-.05 0-.025.019-.043.043-.043z"/>
        <path fill="#FF0"
              d="M8.973 12.082c0-.205.143-.26.143-.26s.143.061.143.26zm-.36-.56h1.013c.02 0 .038.025.038.05a.04.04 0 0 1-.038.038H8.612c-.018 0-.037-.02-.037-.044 0-.019.019-.037.037-.037zm.024.094h.958c.019 0 .038.018.038.043s-.02.044-.038.044h-.964c-.025 0-.037-.019-.037-.044s.012-.043.037-.043zm.311-.66h.075v.05h.056v-.05h.08v.056h.057v-.062h.074v.124q-.002.038-.03.038h-.274c-.02 0-.038-.013-.038-.031zm.286.168.02.398h-.268l.018-.404h.23"/>
        <path stroke="#000" stroke-width=".047"
              d="m9.234 11.124.02.398h-.268l.018-.404h.23m-.26.964c0-.205.142-.26.142-.26s.143.061.143.26zm-.362-.56h1.014c.02 0 .038.025.038.05a.04.04 0 0 1-.038.038H8.612c-.018 0-.037-.02-.037-.044 0-.019.019-.037.037-.037zm.025.094h.958c.019 0 .038.018.038.043s-.02.044-.038.044h-.964c-.025 0-.037-.019-.037-.044s.012-.043.037-.043zm.311-.66h.075v.05h.056v-.05h.08v.056h.057v-.062h.074v.124q-.002.038-.03.038h-.274c-.02 0-.038-.013-.038-.031z"/>
        <path fill="#FF0" stroke="#000" stroke-width=".047"
              d="M8.91 11.31v.212h-.248v-.211zM9.569 11.31v.212H9.32v-.211z"/>
        <path fill="#FF0" stroke="#000" stroke-width=".047"
              d="M8.618 11.15h.075v.061h.056v-.062h.075v.062h.056v-.062h.074v.125q-.002.036-.03.037h-.268a.037.037 0 0 1-.038-.037zM9.276 11.15h.075v.061h.056v-.062h.075v.062h.056v-.062h.074v.125q-.001.036-.03.037h-.268a.037.037 0 0 1-.038-.037z"/>
        <path fill="#000"
              d="M9.091 11.249c0-.038.056-.038.056 0v.1h-.056zM8.761 11.386c0-.038.05-.038.05 0v.074h-.05z"/>
        <path fill="#FF0" d="M9.86 15.05c-.206-.272-.066-.486-.066-.486.005-.004.264-.097.476.172l-.406.32"/>
        <path fill="#FF0" stroke="#000" stroke-width=".047"
              d="m9.436 14.854.208.335.206-.162c-.2-.254-.036-.447-.036-.447.005-.004.238-.1.432.136l.205-.162-.285-.282-.734.577zm.198.352.83-.655c.015-.011.042-.008.057.011.02.025.016.05.002.062l-.832.655c-.014.011-.04.008-.06-.016a.043.043 0 0 1 .008-.061z"/>
        <path fill="#FF0"
              d="M9.933 14.962c-.127-.161-.05-.294-.05-.294s.152-.04.275.117zm-.63-.217.797-.627c.014-.012.045-.004.06.016.011.014.008.04-.006.052l-.797.628c-.015.011-.041.008-.056-.011-.012-.015-.009-.041.006-.053zm.077.058.753-.593c.015-.011.04-.008.056.011.016.02.013.046-.002.058l-.758.596c-.02.016-.04.009-.056-.01-.015-.02-.017-.043.002-.058zm-.163-.71.058-.047.031.04.044-.035-.03-.04.063-.05.034.045.044-.035-.038-.049.059-.046.077.098q.022.03-.002.048l-.215.17c-.014.011-.037.013-.048-.002zm.328-.046.261.302-.21.165-.235-.33.18-.141"/>
        <path stroke="#000" stroke-width=".047"
              d="m9.545 14.047.261.302-.21.165-.235-.33.18-.141m.392.919c-.127-.161-.05-.294-.05-.294s.152-.04.275.117zm-.63-.217.797-.627c.014-.012.045-.004.06.016.011.014.008.04-.006.052l-.797.628c-.015.011-.041.008-.056-.011-.012-.015-.009-.041.006-.053zm.077.058.753-.593c.015-.011.04-.008.056.011.016.02.013.046-.002.058l-.758.596c-.02.016-.04.009-.056-.01-.015-.02-.017-.043.002-.058zm-.163-.71.058-.047.031.04.044-.035-.03-.04.063-.05.034.045.044-.035-.038-.049.059-.046.077.098q.022.03-.002.048l-.215.17c-.014.011-.037.013-.048-.002z"/>
        <path fill="#FF0" stroke="#000" stroke-width=".047"
              d="m9.407 14.394.13.166-.195.154-.13-.166zM9.924 13.987l.13.166-.195.154-.13-.166z"/>
        <path fill="#FF0" stroke="#000" stroke-width=".047"
              d="m9.077 14.448.058-.046.039.049.044-.035-.039-.049.06-.046.038.049.044-.035-.039-.049.059-.046.077.098q.021.03-.002.049l-.21.165a.037.037 0 0 1-.052-.006zM9.594 14.04l.059-.045.038.049.044-.035-.038-.049.058-.046.039.049.044-.035-.039-.049.059-.046.077.098q.021.03-.002.048l-.21.166a.037.037 0 0 1-.052-.006z"/>
        <path fill="#000"
              d="M9.51 14.234c-.023-.03.02-.064.044-.035l.062.078-.044.035zM9.336 14.545c-.024-.03.016-.06.039-.03l.046.058-.04.03z"/>
        <path fill="#FF0" d="M13.908 15.167c.207-.272.066-.486.066-.486-.005-.004-.264-.097-.475.172l.405.32"/>
        <path fill="#FF0" stroke="#000" stroke-width=".047"
              d="m14.332 14.97-.208.336-.205-.162c.2-.254.035-.447.035-.447-.005-.004-.238-.1-.431.135l-.206-.161.286-.282.733.577zm-.197.352-.831-.654c-.015-.012-.041-.009-.057.01-.019.025-.016.051-.001.063l.831.654c.015.012.04.009.06-.016a.043.043 0 0 0-.007-.06z"/>
        <path fill="#FF0"
              d="M13.836 15.079c.127-.162.049-.294.049-.294s-.151-.04-.274.117zm.63-.217-.797-.628c-.015-.011-.045-.003-.06.016-.012.015-.009.041.006.053l.797.627c.014.012.04.009.056-.01.011-.015.008-.042-.006-.053zm-.078.058-.753-.593c-.014-.012-.04-.008-.056.011-.015.02-.012.046.002.057l.758.597c.02.015.041.008.056-.011.016-.02.018-.042-.002-.057zm.164-.71-.059-.047-.03.039-.045-.035.031-.039-.063-.05-.035.044-.044-.034.038-.05-.058-.046-.077.098q-.023.03.001.049l.215.17c.015.01.037.013.049-.002zm-.329-.046-.261.301.21.166.236-.33-.181-.142"/>
        <path stroke="#000" stroke-width=".047"
              d="m14.223 14.164-.261.301.21.166.236-.33-.181-.142m-.391.92c.127-.162.049-.294.049-.294s-.151-.04-.274.117zm.63-.217-.797-.628c-.015-.011-.045-.003-.06.016-.012.015-.009.041.006.053l.797.627c.014.012.04.009.056-.01.011-.015.008-.042-.006-.053zm-.078.058-.753-.593c-.014-.012-.04-.008-.056.011-.015.02-.012.046.002.057l.758.597c.02.015.041.008.056-.011.016-.02.018-.042-.002-.057zm.164-.71-.059-.047-.03.039-.045-.035.031-.039-.063-.05-.035.044-.044-.034.038-.05-.058-.046-.077.098q-.023.03.001.049l.215.17c.015.01.037.013.049-.002z"/>
        <path fill="#FF0" stroke="#000" stroke-width=".047"
              d="m14.362 14.51-.131.167.196.154.13-.166zM13.845 14.104l-.131.166.195.154.131-.166z"/>
        <path fill="#FF0" stroke="#000" stroke-width=".047"
              d="m14.692 14.565-.059-.046-.038.048-.045-.034.039-.05-.059-.045-.038.048-.044-.034.038-.049-.058-.046-.077.098q-.023.03.001.048l.21.166a.037.037 0 0 0 .053-.007zM14.175 14.158l-.059-.047-.038.05-.044-.035.038-.05-.059-.046-.038.05-.044-.035.038-.05-.058-.045-.077.098q-.023.03.001.048l.21.166a.037.037 0 0 0 .053-.007z"/>
        <path fill="#000"
              d="M14.259 14.35c.023-.029-.021-.064-.044-.034l-.062.078.044.034zM14.433 14.662c.023-.03-.016-.06-.04-.031l-.045.059.039.03z"/>
        <path fill="#039"
              d="M11.473 12.151a.52.52 0 0 0 .286.464.5.5 0 0 0 .18.04c.131 0 .25-.062.33-.15a.52.52 0 0 0 .137-.354v-.672h-.933z"/>
        <path fill="#fff"
              d="M11.69 11.828a.093.093 0 1 0 0-.187.093.093 0 0 0 0 .187M12.207 11.828a.093.093 0 1 0 0-.187.093.093 0 0 0 0 .187M11.946 12.077a.093.093 0 1 0 0-.187.093.093 0 0 0 0 .187M11.69 12.338a.093.093 0 1 0 0-.187.093.093 0 0 0 0 .187M12.207 12.338a.093.093 0 1 0 0-.187.093.093 0 0 0 0 .187"/>
        <path fill="#039"
              d="M12.75 12.151a.52.52 0 0 0 .286.464.5.5 0 0 0 .18.04c.131 0 .25-.062.33-.15a.52.52 0 0 0 .137-.354v-.672h-.933z"/>
        <path fill="#fff"
              d="M12.968 11.828a.093.093 0 1 0 0-.187.093.093 0 0 0 0 .187M13.484 11.828a.093.093 0 1 0 0-.187.093.093 0 0 0 0 .187M13.223 12.077a.093.093 0 1 0 0-.187.093.093 0 0 0 0 .187M12.968 12.338a.093.093 0 1 0 0-.187.093.093 0 0 0 0 .187M13.484 12.338a.093.093 0 1 0 0-.187.093.093 0 0 0 0 .187"/>
        <path fill="#039"
              d="M10.183 12.151a.52.52 0 0 0 .286.464q.087.04.181.04c.13 0 .249-.062.33-.15a.52.52 0 0 0 .137-.354v-.672h-.934z"/>
        <path fill="#fff"
              d="M10.401 11.828a.093.093 0 1 0 0-.187.093.093 0 0 0 0 .187M10.918 11.828a.093.093 0 1 0 0-.187.093.093 0 0 0 0 .187M10.656 12.077a.093.093 0 1 0 0-.187.093.093 0 0 0 0 .187M10.401 12.338a.093.093 0 1 0 0-.187.093.093 0 0 0 0 .187M10.918 12.338a.093.093 0 1 0 0-.187.093.093 0 0 0 0 .187"/>
        <path fill="#039"
              d="M11.473 10.455a.52.52 0 0 0 .286.464.5.5 0 0 0 .18.04c.131 0 .25-.062.33-.15a.52.52 0 0 0 .137-.354v-.672h-.933z"/>
        <path fill="#fff"
              d="M11.69 10.132a.093.093 0 1 0 0-.187.093.093 0 0 0 0 .187M12.207 10.132a.093.093 0 1 0 0-.187.093.093 0 0 0 0 .187M11.946 10.38a.093.093 0 1 0 0-.186.093.093 0 0 0 0 .187M11.69 10.642a.093.093 0 1 0 0-.187.093.093 0 0 0 0 .187M12.207 10.642a.093.093 0 1 0 0-.187.093.093 0 0 0 0 .187"/>
        <path fill="#039"
              d="M11.473 13.839a.52.52 0 0 0 .286.464q.086.038.18.04c.131 0 .25-.063.33-.15a.52.52 0 0 0 .137-.354v-.672h-.933z"/>
        <path fill="#fff"
              d="M11.69 13.515a.093.093 0 1 0 0-.187.093.093 0 0 0 0 .187M12.207 13.515a.093.093 0 1 0 0-.186.093.093 0 0 0 0 .186M11.946 13.764a.093.093 0 1 0 0-.187.093.093 0 0 0 0 .187M11.69 14.025a.093.093 0 1 0 0-.186.093.093 0 0 0 0 .186M12.207 14.025a.093.093 0 1 0 0-.186.093.093 0 0 0 0 .186"/>
    </g>
</svg>
