<svg xmlns="http://www.w3.org/2000/svg" width="24" height="24" fill="none">
    <defs>
        <clipPath id="mask">
            <path fill="#fff" fill-rule="evenodd" d="M12 22c5.523 0 10-4.477 10-10S17.523 2 12 2 2 6.477 2 12s4.477 10 10 10" clip-rule="evenodd"/>
        </clipPath>
    </defs>
    <g fill-rule="evenodd" clip-path="url(#mask)">
        <path fill="#E30A17" d="M-1.667.75H27v21.5H-1.667z"/>
        <path fill="#fff"
              d="M16.563 11.836c0 2.965-2.445 5.37-5.464 5.37s-5.465-2.405-5.465-5.375S8.08 6.465 11.1 6.465s5.464 2.406 5.464 5.37"/>
        <path fill="#E30A17"
              d="M16.832 11.836c0 2.374-1.953 4.295-4.367 4.295s-4.372-1.926-4.372-4.3 1.958-4.29 4.372-4.29 4.372 1.92 4.372 4.295z"/>
        <path fill="#fff"
              d="m17.625 9.328-.045 1.984-1.85.502 1.828.65-.045 1.822 1.187-1.424 1.8.627-1.038-1.528 1.267-1.518-1.948.537-1.156-1.657z"/>
    </g>
</svg>