<svg xmlns="http://www.w3.org/2000/svg" width="24" height="24" fill="none">
    <defs>
        <clipPath id="mask">
            <path fill="#fff" fill-rule="evenodd" d="M12 22c5.523 0 10-4.477 10-10S17.523 2 12 2 2 6.477 2 12s4.477 10 10 10" clip-rule="evenodd"/>
        </clipPath>
    </defs>
    <g clip-path="url(#mask)">
        <path fill="#DE2910" d="M2 2h30v22.5H2z"/>
        <path fill="#FFDE00" d="M5.6 10.325 7.625 4.25l2.025 6.075-5.4-3.712H11zM14.383 4.366l-2.084.462 1.39-1.62-.136 2.18-1.157-1.93zM16.486 7.032l-2.1-.383 1.91-.954-.971 1.957-.318-2.227zM16.18 10.772l-1.762-1.206 2.133-.093-1.685 1.39.619-2.162zM13.53 13.214l-1.158-1.792 2.002.739-2.09.631 1.406-1.756z"/>
    </g>
</svg>