<svg xmlns="http://www.w3.org/2000/svg" width="140" height="52" fill="none"><path fill="#B4B4B4" fill-rule="evenodd" d="M2.006 12.431v-1.17l1.342-.325L20.488 6.5v2.538L5.373 13.001v15.677s-.171 1.86 1.263 4.292c1.62 2.75 5.61 6.566 13.853 9.495V45.5C13.92 43.182 5.504 38.913 2.845 32.873c-.592-1.344-.899-2.777-.836-4.296h-.002V12.431Zm21.91 27.736c-.906.475-1.884.947-2.936 1.415V10.417l3.037.838v20.813l-.1 8.1Zm2.91-2.121c1.17-.534 3.037-2.139 3.037-2.139V12.42l-3.037-.838v26.464Zm5.889-12.54L32.63 13.37l3.036.838-.085 11.445v2.078s-.106 1.982-2.248 4.787c-.165.217-.343.44-.534.666l-.084.086v-7.762Zm24.16 4.429a6.076 6.076 0 0 0 .958-1.965h-2.178c-.264.807-.694 1.433-1.288 1.877-.694.52-1.591.779-2.685.779-.755 0-1.428-.16-2.01-.486-.578-.32-1.055-.796-1.436-1.422a5.733 5.733 0 0 1-.672-1.593 7.64 7.64 0 0 1-.218-1.871c0-.776.094-1.484.284-2.12.191-.65.488-1.227.88-1.727a3.91 3.91 0 0 1 1.456-1.17c.57-.264 1.206-.398 1.91-.398a4.237 4.237 0 0 1 2.415.752c.372.256.678.562.922.918.171.251.316.528.426.83h2.247a4.465 4.465 0 0 0-.823-1.835c-.502-.657-1.213-1.192-2.133-1.598l-.003-.004c-.902-.41-1.938-.616-3.097-.616-.503 0-.982.04-1.429.115a7.32 7.32 0 0 0-1.311.34 5.64 5.64 0 0 0-2.04 1.287c-.563.566-1.012 1.268-1.343 2.104l-.003.003a7.638 7.638 0 0 0-.424 1.528c-.095.54-.147 1.124-.147 1.75 0 .774.078 1.482.225 2.122.146.63.365 1.2.657 1.701.287.503.63.942 1.024 1.316.392.368.835.676 1.335.92v.002c.501.247 1.04.435 1.604.56a8.49 8.49 0 0 0 1.81.186c.584 0 1.127-.054 1.641-.161.506-.111.981-.271 1.42-.485l.002-.003c.836-.404 1.512-.947 2.025-1.636Zm22.988 1.89h1.972v-13.16h-1.972v13.16ZM64.078 21.284c1.62 0 3.075.627 4.088 1.63l-.113.136-.008-.01-.002.019a4.838 4.838 0 0 0-.908 1.825c-.578-1-1.725-1.682-3.058-1.682-1.902 0-3.448 1.4-3.448 3.126 0 1.728 1.546 3.13 3.448 3.13 1.854 0 3.366-1.332 3.443-2.999-.002-.043-.002-.086-.002-.13 0-1.102.39-2.121 1.048-2.952l.004-.018.004.006c1.014-1.26 2.651-2.082 4.502-2.082 3.069 0 5.556 2.26 5.556 5.045 0 2.788-2.487 5.047-5.556 5.047-1.627 0-3.09-.635-4.106-1.646a4.8 4.8 0 0 0 1.018-2.01c.56 1.028 1.734 1.738 3.088 1.738 1.905 0 3.446-1.401 3.446-3.13 0-1.726-1.541-3.126-3.446-3.126-1.838 0-3.345 1.308-3.44 2.956l-.005.002c.004.057.004.113.004.168 0 2.788-2.486 5.047-5.557 5.047-3.067 0-5.557-2.258-5.557-5.047 0-2.785 2.49-5.043 5.557-5.043Zm47.609 10.34v-1.3c-.612.017-.843-.231-.843-.786V25.52c0-2.85-1.392-3.922-4.51-3.922-2.592 0-4.173.937-4.383 2.736h2.022c.17-.861.97-1.225 2.361-1.225 1.454 0 2.381.344 2.381 1.952v.173c-.628.326-1.838.458-3.005.584-.202.022-.402.044-.598.067-2.108.249-3.815 1.053-3.815 3.023 0 1.99 1.665 2.927 3.751 2.927 2.572 0 3.626-1.587 3.857-2.028v.46c0 1.052.78 1.491 1.918 1.491.316 0 .548-.019.864-.134Zm-5.844-4.481c1.366-.181 2.281-.303 2.872-.57v1.97c-.274.48-1.264 1.8-3.35 1.8-1.265 0-1.919-.651-1.919-1.55 0-.88.506-1.397 1.792-1.57l.605-.08Zm14.18 4.662V18.41h-2.128v13.394h2.128Zm-4.471-13.394v13.394h-2.129V18.41h2.129Zm8.338 8.946h8.008v-.48c0-3.71-2.339-5.28-4.973-5.28-2.487 0-5.164 1.53-5.164 5.128 0 3.617 2.741 5.109 5.185 5.109 2.276 0 3.793-.746 4.678-2.602h-2.045c-.569.746-1.432 1.014-2.465 1.014-1.643 0-2.993-.88-3.224-2.89Zm5.922-1.339h-5.922c.231-1.914 1.517-2.833 3.035-2.832 1.58 0 2.697.9 2.887 2.832Zm-36.167-4.406-.003.009h.057l2.47 7.239 3.023-10.203h2.299l-4.183 13.176h-2.05l-2.64-7.357-2.637 7.356h-2.05l-4.183-13.175h2.298L89.07 28.86l2.468-7.239h.057l-.003-.008.965.004 1.088-.005Zm41.219-1.006h-1.175v8.624c0 1.736.892 2.605 2.677 2.605H138v-1.627h-.995c-.858 0-1.288-.204-1.288-1.106v-5.428h2.281V22.17h-2.729l-.405-1.565Z" clip-rule="evenodd"/></svg>