<svg width="102" height="56" fill="none" xmlns="http://www.w3.org/2000/svg"><g clip-path="url(#a)" fill="#B4B6B8"><path d="M14.483 12.05h.115c.558.002 1.106.014 1.66.098l.123.018c2.444.367 4.795 1.245 8.519 3.413l.06.04a23.054 23.054 0 0 1 3.132 2.472c.076.072.153.142.23.212.145.132.283.268.42.408l.071.073.149.15.226.23.145.148.067.068c.12.122.235.246.345.377.06.07.122.14.185.208.117.131.23.265.34.403l.157.196c1.314 1.618 2.407 3.528 2.804 5.604l.013.068c.078.441.105.876.103 1.324v.08a6.528 6.528 0 0 1-.096 1.218l-.015.082a10.54 10.54 0 0 1-.83 2.52l-.038.083a12.9 12.9 0 0 1-1.08 1.871c-.293.43-.607.84-.933 1.245a9.436 9.436 0 0 1-.573.675c-.065.071-.128.143-.19.217-.086.1-.178.194-.271.287-.052.053-.1.108-.148.166a6.33 6.33 0 0 1-.699.702c-.064.058-.124.119-.184.181a5 5 0 0 1-.303.287c-.068.06-.135.121-.201.183a9.312 9.312 0 0 1-.387.332c-.075.063-.149.126-.222.19-.183.16-.37.311-.563.459l-.189.145a24.81 24.81 0 0 1-2.922 1.938l-.08.046c-2.185 1.233-4.565 2.17-12.374 2.182a9.958 9.958 0 0 1-3.259-1.636l-.053-.041c-.638-.493-1.264-1.05-1.78-1.674l-.076-.089c-.23-.267-.442-.545-.651-.828l-.051-.07c-.24-.323-.467-.65-.677-.995l-.041-.068a14.825 14.825 0 0 1-1.355-2.89l-.03-.085c-.55-1.555-.82-3.209-.967-4.849l-.005-.061c-.034-.39-.05-.776-.052-1.166v-.136l-.001-.43v-.075c0-.73.006-1.455.087-2.181a43 43 0 0 0 .023-.208c.234-2.172.769-4.286 1.73-6.247l.038-.077c.368-.745.826-1.453 1.33-2.111l.037-.048c.28-.368.572-.721.884-1.062l.115-.13c1.61-1.828 3.903-2.972 6.275-3.322l.091-.014c.607-.083 1.21-.108 1.822-.106Zm-2.648 7.107-.08.054a1.08 1.08 0 0 0-.298.538l-.062.01c-.242.045-.483.09-.724.137l-.092.018c-.504.098-.979.231-1.305.663-.165.272-.198.509-.174.828.025.107.064.199.116.296l.038.07c.138.233.344.41.602.491.255.05.47.008.719-.057l.105-.026c.084-.02.169-.042.253-.064l-.02.106a55.249 55.249 0 0 0-.62 4l-.009.081c-.015.124-.015.124-.02.249l-.06.013c-.383.095-.73.297-.957.634-.156.282-.183.569-.1.876.095.291.278.52.541.674.107.052.2.082.318.096l.112.014v.056c-.035 3.771-.035 3.771 1.638 7.02.23.236.462.42.748.584l.085.048c.468.253.967.33 1.486.395l.074.01c.276.03.553.027.83.027h.083c.443 0 .874-.022 1.312-.096l.093-.015a9.909 9.909 0 0 0 2.7-.872l.08-.039c.79-.387 1.527-.86 2.22-1.41l.079-.063a16.024 16.024 0 0 0 .968-.846 9.36 9.36 0 0 0 .853-.867c.06-.072.124-.14.187-.21.54-.578.54-.578.744-1.308-.017-.145-.092-.221-.19-.32a1.223 1.223 0 0 0-.343-.142l-.033.039c-.307.359-.621.716-.977 1.025-.072.064-.142.13-.212.197-.188.18-.38.35-.582.513l-.104.087c-.616.517-1.27.987-1.962 1.392l-.059.034c-1.483.872-3.457 1.613-5.19 1.16a2.732 2.732 0 0 1-1.123-.603l-.073-.065c-1.294-1.235-1.428-3.57-1.495-5.254-.004-.138-.004-.275-.004-.413v-.242l.057-.005 3.723-.368.657-.065c2.409-.238 4.815-.487 7.213-.819l.303-.041a68.915 68.915 0 0 0 .581-.081c.346-.048.657-.098.88-.395a.799.799 0 0 0 .117-.562c-.047-.157-.129-.216-.261-.297-.13-.063-.257-.063-.4-.063h-.066c-.21.003-.418.019-.628.04a34.542 34.542 0 0 1-.493.047l-.775.071-.079.008c-2.835.256-5.685.314-10.8.371.103-1.394.267-2.776.497-4.155l.017-.1.03-.182c.029-.167.05-.333.068-.502l.096-.01c.154-.02.303-.055.454-.09l.19-.045.101-.023a42.85 42.85 0 0 1 6.135-.963l.081-.007c1.227-.102 2.456-.111 3.687-.104a256.908 256.908 0 0 0 1.023.005c.603.018.603.018 1.142-.221a.4.4 0 0 0 .115-.25.813.813 0 0 0-.256-.521c-.21-.158-.44-.213-.697-.23l-.085-.007a29.05 29.05 0 0 0-.28-.02l-.204-.014a88.972 88.972 0 0 0-.85-.057 44.68 44.68 0 0 0-6.563.021c-1.182.09-2.367.212-3.537.407l-.016-.063c-.067-.256-.067-.256-.238-.447-.36-.206-.745.002-1.055.214ZM86.315 23.94l.076.047.068.042c.142.081.142.081.3.085a2.87 2.87 0 0 0 .198-.074l.073-.028.229-.091a32.143 32.143 0 0 1 .437-.174l.057-.023a.279.279 0 0 1 .172.017 156.42 156.42 0 0 1 .298 1.297l.026.108c.084.377.084.377-.01.551-.013.02-.027.039-.042.059-.543.885-.584 2.196-.676 3.218l-.008.08a92.105 92.105 0 0 0-.162 2.152c-.01.152-.02.304-.032.456a33.38 33.38 0 0 0-.103 2.345v.09c0 .572.022 1.146.243 1.681a27.566 27.566 0 0 0 .135.01l.075.005c.1.018.169.05.256.104.045.08.045.08.078.175l.038.106.036.11.039.11c.23.663.23.663.087.977-.143.268-.356.521-.63.656l-.057.03a.963.963 0 0 1-.688.005c-.486-.202-.754-.589-.955-1.066-.523-1.29-.49-2.8-.425-4.17l.004-.086c.016-.366.036-.73.069-1.096.014-.152.02-.301.018-.454l-.037.057a28.65 28.65 0 0 1-1.34 1.885c-.17.223-.344.443-.52.662-.102.128-.204.258-.304.389-.13.168-.264.332-.4.495a12.8 12.8 0 0 0-.204.25c-.23.287-.472.566-.717.84a11.26 11.26 0 0 0-.154.178c-.204.238-.415.47-.637.691a2.894 2.894 0 0 0-.147.167c-.125.148-.269.276-.412.406a13.65 13.65 0 0 0-.136.128 7.507 7.507 0 0 1-.629.54c-.343.265-.657.352-1.085.321a1.46 1.46 0 0 1-.582-.295l-.058-.044c-.298-.245-.51-.598-.698-.932l-.05-.087c-.69-1.297-.298-3.187-.077-4.577l.031-.198c.05-.322.102-.643.154-.965l.01-.066c.32-1.977.32-1.977.543-2.891l.026-.112c.253-1.045.597-2.08 1.05-3.053l.036-.075a6.848 6.848 0 0 1 .863-1.415c.442-.539 1.118-.833 1.797-.9 1.567-.114 3.138.529 4.453 1.347Zm-5.14 1.067c-.833 1.022-1.19 2.358-1.493 3.624l-.073.303a185.275 185.275 0 0 0-.24.995l-.14.582-.052.216c-.1.412-.188.824-.259 1.242-.025.147-.052.293-.078.439-.148.813-.148.813-.27 1.63l-.013.1c-.125.933-.125.933.115 1.818.088.114.172.218.32.236.396-.15.724-.517 1.024-.808l.24-.223c.193-.18.375-.364.546-.566.054-.061.11-.12.168-.177.094-.094.181-.191.267-.292l.18-.206c.114-.127.22-.257.326-.39.08-.098.16-.194.242-.29.13-.152.254-.308.376-.467.101-.133.205-.263.31-.392.14-.174.275-.352.406-.532.11-.15.222-.297.336-.444.186-.242.364-.489.539-.738l.127-.182a19.595 19.595 0 0 0 1.634-2.722l.04-.08c.145-.303.262-.614.37-.934.01-.034.022-.069.034-.104.11-.338.091-.61-.062-.931-.053-.081-.109-.099-.2-.122l-.1-.02a1.322 1.322 0 0 1-.37-.169 48.033 48.033 0 0 0-.136-.08l-.067-.038c-1.009-.579-3.112-1.268-4.046-.278ZM65.913 23.908c.18.139.317.3.45.484l.05.064c.038.054.038.054.038.113l.062.002c1.567.07 3.227.759 4.448 1.743l.086.07c.214.173.414.36.612.551l.067.064c.13.13.246.268.36.413.043.054.087.108.133.16.753.873 1.288 1.992 1.683 3.076.027.073.056.146.086.219.5 1.265.704 2.898.166 4.183-.327.741-.942 1.274-1.679 1.564-1.26.462-2.778.128-4.07-.022l-.11-.013c-.52-.061-1.036-.132-1.553-.21l.002.063c.024.538.03 1.074.02 1.612l-.002.116c-.016.872-.05 1.745-.14 2.614l-.007.078-.008.08-.008.077-.016.154a12.388 12.388 0 0 0-.04 1.551v.092l.005.169a.982.982 0 0 1-.194.622c-.173.172-.344.23-.584.235a.667.667 0 0 1-.296-.054c-.149-.155-.208-.35-.247-.56l-.015-.076c-.109-.62-.133-1.257-.162-1.885l-.003-.074a72.641 72.641 0 0 1-.055-3.34v-.3a119.348 119.348 0 0 1 .064-4.203l.002-.07c.03-1.086.03-2.171.03-3.257v-1.201c0-.44-.007-.88-.024-1.319a17.929 17.929 0 0 1-.01-.883c-.872.167-1.695.409-2.495.806l-.098.05c-.063.03-.125.063-.187.095-.201.102-.375.174-.6.122-.404-.18-.692-.452-.866-.867a3.435 3.435 0 0 1-.148-.68c3.057-1.567 3.057-1.567 4.132-1.567l-.02-.047c-.037-.112-.053-.185-.005-.296.273-.412.708-.607 1.146-.318Zm.887 2.672a262.561 262.561 0 0 0-.064 6.317 615.904 615.904 0 0 0 .002 1.773v.093c-.004.068-.004.068.033.098.08.01.16.016.242.022l.077.006.254.018.18.014a239.85 239.85 0 0 0 .852.063 152.521 152.521 0 0 0 1.81.128c.818.05 1.576-.056 2.226-.6.369-.352.512-.857.536-1.357a5.75 5.75 0 0 0-.51-2.485c-.37-.83-.819-1.602-1.448-2.256l-.07-.076a4.554 4.554 0 0 0-1.152-.87l-.067-.038a7.858 7.858 0 0 0-2.29-.79l-.06-.012a2.32 2.32 0 0 0-.44-.048H66.8ZM37.806 17.98c.489.575.28 2.067.28 2.763v.062c0 2.152-.11 4.3-.236 6.447l-.004.065-.08 1.357c-.051.837-.1 1.675-.139 2.512l-.008.173a51.66 51.66 0 0 0-.069 2.163v.065l-.002.338-.001.274a34.95 34.95 0 0 0-.003.466c-.006.49.107.92.394 1.318.094.054.188.026.288.002.09-.027.176-.062.262-.098l.076-.031c.469-.199.916-.442 1.356-.699.21-.122.421-.24.634-.355.594-.323 1.175-.66 1.736-1.038l.067-.044.124-.084c.19-.128.37-.22.601-.181.099.026.16.065.236.135.107.2.144.424.117.65-.033.082-.08.15-.131.22l-.04.058-.12.166-.062.084a6.324 6.324 0 0 1-.227.279 6.98 6.98 0 0 1-.991.968l-.103.081c-1.113.873-3.019 2.151-4.495 1.989-.31-.083-.519-.395-.672-.661-.36-.679-.494-1.444-.585-2.2l-.007-.062-.021-.18-.012-.105a11.487 11.487 0 0 1-.047-1.09v-.135c-.002-.145-.002-.29-.002-.434v-.075c0-1.305.1-2.585.234-3.883a93.54 93.54 0 0 0 .275-3.083l.007-.095c.017-.238.031-.476.044-.714l.004-.068c.048-.878.064-1.753.062-2.632v-.503c.002-.981-.018-1.955-.127-2.93a82.002 82.002 0 0 1-.039-.353c-.031-.29.003-.465.173-.703.214-.243.533-.288.839-.317.17-.01.28.002.414.118ZM46.94 17.933c.3.273.265.92.287 1.295.121 2.31-.02 4.648-.211 8.03l-.004.064-.08 1.368c-.051.842-.1 1.683-.14 2.525l-.007.173c-.034.724-.065 1.45-.07 2.176v.062a114.695 114.695 0 0 0-.003.58c-.006.648-.003 1.213.38 1.762.069.057.069.057.175.045.134-.025.258-.071.383-.124l.075-.031c.491-.208.961-.463 1.422-.732.208-.121.418-.237.63-.351a18.111 18.111 0 0 0 1.716-1.039c.48-.333.48-.333.757-.282.135.04.212.101.287.22.035.095.054.17.063.27l.01.065c.023.248-.1.398-.242.586l-.075.101a7.993 7.993 0 0 1-.595.698l-.062.067c-.127.133-.264.25-.407.367a4.684 4.684 0 0 0-.157.134c-1.087.969-3.092 2.186-4.582 2.123-.207-.03-.359-.172-.495-.325-.49-.672-.672-1.484-.79-2.298l-.014-.092c-.1-.72-.109-1.444-.107-2.17v-.144c.003-1.275.104-2.53.236-3.796.335-3.239.58-6.525.234-10.32-.038-.277-.025-.483.127-.72.178-.231.397-.302.676-.338l.111-.015c.319-.032.319-.032.471.066ZM94.204 17.978c.23.307.22.76.242 1.13l.003.06c.031.52.032 1.04.03 1.562v.244a75.955 75.955 0 0 1-.066 3.093l-.002.06a202.857 202.857 0 0 1-.17 3.214l-.008.13-.073 1.24c-.139 2.187-.139 2.187-.21 4.377l-.001.068-.001.079-.002.097a90.938 90.938 0 0 0-.009.94c-.005.507-.01.98.229 1.44l.05.099c.069.117.069.117.168.204.161-.011.302-.047.452-.106l.06-.024c.22-.087.43-.192.64-.3l.06-.032c.314-.161.622-.331.927-.51.168-.098.338-.192.51-.285l.348-.192.082-.046c.393-.217.77-.454 1.14-.708.58-.395.58-.395.873-.37a.468.468 0 0 1 .273.222.99.99 0 0 1 .077.606c-.072.163-.184.304-.291.444l-.067.087c-.325.416-.69.795-1.097 1.125a92 92 0 0 0-.102.085c-1.11.925-3.024 2.167-4.513 2.086-.259-.045-.455-.23-.607-.437-1.313-2.008-.886-5.286-.602-8.295l.008-.07.037-.36.016-.148.007-.073c.143-1.363.258-2.73.312-4.1l.006-.16c.027-.653.031-1.306.03-1.96v-.081c0-1.208-.027-2.411-.18-3.61-.028-.248.029-.422.175-.622.279-.286.904-.466 1.246-.203ZM56.696 24.438c.426.47.288 1.438.267 2.027-.049 1.09-.238 2.176-.413 3.25l-.013.078-.125.76a26.79 26.79 0 0 0-.213 1.468l-.007.063a21.03 21.03 0 0 0-.108 2.285c-.008.502.055 1.026.382 1.423.033.045.033.045.033.105.175-.014.301-.052.455-.135l.061-.033.183-.099.098-.053c.413-.234.806-.503 1.202-.764l.242-.159.065-.042c.406-.266.821-.512 1.244-.749.352-.2.688-.417 1.023-.646l.053-.036.143-.097c.202-.125.377-.177.614-.145a.527.527 0 0 1 .271.263c.069.213.027.427-.067.624-.056.094-.119.18-.184.268l-.054.075a6.802 6.802 0 0 1-.577.663l-.111.117c-.205.212-.414.41-.645.593l-.1.082a12.955 12.955 0 0 1-1.898 1.293c-2 1.149-2 1.149-2.766.972-.393-.127-.662-.433-.85-.797-.516-1.054-.562-2.294-.56-3.45v-.088c.002-1.586.183-3.157.394-4.726a37.42 37.42 0 0 0 .179-1.568c.04-.43.073-.858.076-1.29l.001-.082.003-.335c0-.64 0-.64.211-.888.222-.218.523-.266.818-.299l.095-.013c.215-.025.384-.027.578.085ZM58.718 16.784c.23.19.434.442.487.747.04.514-.12.895-.446 1.289-.1.116-.204.227-.31.337l-.054.057c-.366.38-.366.38-.559.544-.073.065-.145.131-.216.198-.11.102-.222.203-.334.302a27.88 27.88 0 0 0-.422.386c-.147.135-.297.265-.451.391-.082.069-.161.139-.241.21-.231.207-.471.4-.718.587l-.172.134c-.305.238-.708.548-1.11.503-.283-.056-.465-.222-.64-.443-.096-.156-.109-.324-.088-.503l.01-.086c.064-.33.298-.503.538-.714.162-.147.309-.306.45-.474.048-.055.1-.108.151-.16.109-.109.207-.223.306-.34l.077-.09c.393-.462.758-.938 1.11-1.432.23-.325.467-.638.733-.933l.075-.084c.479-.51 1.18-.886 1.824-.426Z"/></g><defs><clipPath id="a"><path fill="#fff" transform="translate(2 12)" d="M0 0h98v32H0z"/></clipPath></defs></svg>