<svg xmlns="http://www.w3.org/2000/svg" width="129" height="52" fill="none"><g clip-path="url(#a)"><path fill="#B4B4B4" d="m27.488 20.48-10.92-6.98v3.903l7.005 4.438-.824 2.542h-6.18v3.234h6.18l.824 2.542-7.005 4.438V38.5l10.92-6.958-1.786-5.53 1.785-5.532ZM7.068 27.617h6.158v-3.234h-6.18l-.802-2.542 6.982-4.438V13.5l-10.92 6.98 1.786 5.531-1.785 5.531L13.249 38.5v-3.903L6.244 30.16l.824-2.542Z"/><mask id="d" width="26" height="26" x="2" y="13" maskUnits="userSpaceOnUse" style="mask-type:alpha"><path fill="url(#b)" d="M27.49 20.48 16.57 13.5v3.903l7.005 4.438-.824 2.542h-6.18v3.234h6.18l.824 2.542-7.005 4.438V38.5l10.92-6.958-1.786-5.53 1.785-5.532Z"/><path fill="url(#c)" d="M7.07 27.617h6.158v-3.234h-6.18l-.802-2.542 6.982-4.438V13.5l-10.92 6.98 1.786 5.531-1.785 5.531L13.25 38.5v-3.903L6.246 30.16l.824-2.542Z"/></mask><g mask="url(#d)"><path fill="#B4B4B4" d="M27.32 13.5h-25v25h25v-25Z"/></g><path fill="#9B9B9B" fill-rule="evenodd" d="M49.213 22.56v-2.185h-12.98v11.25h12.98v-2.186h-10.33v-2.456h8.777v-2.186h-8.777v-2.236h10.33Zm7.402 3.372-5.935 5.693h3.53l4.356-4.134 3.816 4.134h3.682l-5.935-5.693 5.75-5.557h-3.413l-3.9 4.015-4.07-4.015h-3.648l5.767 5.557Zm16.565-5.557c4.81 0 7.701 2.348 7.701 5.625s-2.892 5.625-7.7 5.625c-4.81 0-7.684-2.348-7.684-5.625s2.875-5.625 7.683-5.625Zm0 2.103c-2.891 0-5.023 1.419-5.023 3.522 0 2.103 2.132 3.522 5.023 3.522 2.909 0 5.04-1.419 5.04-3.522 0-2.103-2.131-3.522-5.04-3.522Zm23.459 3.505c0-3.524-2.32-5.608-6.173-5.608h-7.77v11.25H90.5c3.835 0 6.139-2.084 6.139-5.642Zm-6.51-3.422c2.44 0 3.785 1.22 3.785 3.422 0 2.22-1.345 3.456-3.784 3.456h-4.793v-6.878h4.793Zm15.241 9.064c-4.055 0-7.131-1.795-7.131-5.102v-6.148h2.654v5.9c0 2.043 2.179 2.99 4.477 2.99 2.316 0 4.495-.93 4.495-2.99v-5.9h2.637v6.148c0 3.307-3.059 5.102-7.132 5.102Zm8.362-1.125c1.668.734 4.018 1.125 6.196 1.125 3.915 0 6.945-1.256 6.945-3.506 0-1.777-1.429-2.69-4.187-3.065l-3.609-.391c-1.532-.212-2.128-.473-2.128-.994 0-.75 1.192-1.158 2.996-1.158 1.753 0 4.239.293 5.703.88l.868-1.989c-1.481-.652-4.358-1.027-6.451-1.027-3.473 0-5.839 1.288-5.839 3.473 0 1.696 1.396 2.658 4.255 3.033l3.711.39c1.311.196 1.941.441 1.941 1.012 0 .782-1.991 1.223-4.12 1.223-1.855 0-3.915-.424-5.412-1.093l-.869 2.087Z" clip-rule="evenodd"/></g><defs><linearGradient id="b" x1="23.957" x2="16.985" y1="40.219" y2="10.674" gradientUnits="userSpaceOnUse"><stop stop-color="#0B46F9"/><stop offset="1" stop-color="#BBFBE0"/></linearGradient><linearGradient id="c" x1="23.957" x2="16.985" y1="40.219" y2="10.674" gradientUnits="userSpaceOnUse"><stop stop-color="#0B46F9"/><stop offset="1" stop-color="#BBFBE0"/></linearGradient><clipPath id="a"><path fill="#fff" d="M2 13.5h125v25H2z"/></clipPath></defs></svg>