<svg width="24" height="24" fill="none" xmlns="http://www.w3.org/2000/svg"><path d="M12.006 2c-4.176 0-5.397.004-5.635.024-.857.071-1.39.206-1.971.495-.448.223-.8.48-1.15.842-.634.659-1.019 1.47-1.158 2.433-.068.467-.087.563-.091 2.952-.002.796 0 1.844 0 3.25 0 4.173.004 5.393.024 5.63.07.834.2 1.358.477 1.932a4.214 4.214 0 0 0 2.731 2.231c.413.106.868.165 1.453.192.247.011 2.772.019 5.299.019 2.526 0 5.052-.003 5.294-.015.677-.032 1.07-.085 1.505-.197a4.188 4.188 0 0 0 2.73-2.236c.272-.56.41-1.105.472-1.895.014-.172.02-2.92.02-5.664 0-2.744-.007-5.486-.02-5.658-.063-.804-.201-1.344-.481-1.914a3.964 3.964 0 0 0-.857-1.174c-.661-.632-1.47-1.016-2.435-1.155-.467-.068-.56-.088-2.951-.092h-3.256Z" fill="url(#a)"/><path d="M12.006 2c-4.176 0-5.397.004-5.635.024-.857.071-1.39.206-1.971.495-.448.223-.8.48-1.15.842-.634.659-1.019 1.47-1.158 2.433-.068.467-.087.563-.091 2.952-.002.796 0 1.844 0 3.25 0 4.173.004 5.393.024 5.63.07.834.2 1.358.477 1.932a4.214 4.214 0 0 0 2.731 2.231c.413.106.868.165 1.453.192.247.011 2.772.019 5.299.019 2.526 0 5.052-.003 5.294-.015.677-.032 1.07-.085 1.505-.197a4.188 4.188 0 0 0 2.73-2.236c.272-.56.41-1.105.472-1.895.014-.172.02-2.92.02-5.664 0-2.744-.007-5.486-.02-5.658-.063-.804-.201-1.344-.481-1.914a3.964 3.964 0 0 0-.857-1.174c-.661-.632-1.47-1.016-2.435-1.155-.467-.068-.56-.088-2.951-.092h-3.256Z" fill="url(#b)"/><path d="M12.001 4.615c-2.006 0-2.257.009-3.045.045-.786.036-1.323.16-1.793.343a3.616 3.616 0 0 0-1.308.852c-.41.41-.663.822-.852 1.308-.183.47-.308 1.006-.343 1.792-.036.788-.045 1.04-.045 3.046 0 2.005.01 2.256.045 3.044.036.786.16 1.323.343 1.792.189.486.441.898.852 1.309.41.41.822.663 1.308.852.47.183 1.006.307 1.792.343.788.036 1.04.045 3.045.045 2.006 0 2.257-.01 3.045-.045.786-.036 1.323-.16 1.793-.343a3.614 3.614 0 0 0 1.307-.852c.411-.41.664-.823.853-1.309.181-.47.306-1.006.343-1.792.035-.788.045-1.039.045-3.044 0-2.006-.01-2.258-.045-3.046-.037-.786-.162-1.323-.343-1.792a3.624 3.624 0 0 0-.853-1.308 3.61 3.61 0 0 0-1.307-.852c-.471-.183-1.008-.307-1.794-.343-.788-.036-1.039-.045-3.045-.045H12Zm-.662 1.331H12c1.972 0 2.206.007 2.984.043.72.033 1.111.153 1.372.254.344.134.59.294.848.552.259.259.419.505.553.85.101.26.221.65.254 1.37.036.779.043 1.013.043 2.984 0 1.97-.007 2.205-.043 2.983-.033.72-.153 1.111-.254 1.371-.134.345-.294.59-.553.848a2.283 2.283 0 0 1-.848.553c-.26.101-.652.221-1.372.254-.778.036-1.012.043-2.984.043s-2.206-.007-2.984-.043c-.72-.033-1.111-.153-1.372-.254a2.288 2.288 0 0 1-.849-.553 2.289 2.289 0 0 1-.552-.849c-.102-.26-.222-.65-.255-1.37-.035-.779-.042-1.013-.042-2.985s.007-2.205.042-2.983c.033-.72.153-1.111.255-1.372.133-.344.294-.59.552-.849.259-.258.505-.418.85-.553.26-.101.65-.221 1.37-.254.682-.031.946-.04 2.323-.042v.002Zm4.604 1.226a.886.886 0 1 0 0 1.773.886.886 0 0 0 0-1.773Zm-3.942 1.036a3.793 3.793 0 1 0 0 7.585 3.793 3.793 0 0 0 0-7.585Zm0 1.33a2.462 2.462 0 1 1 0 4.924 2.462 2.462 0 0 1 0-4.923Z" fill="#fff"/><defs><radialGradient id="a" cx="0" cy="0" r="1" gradientUnits="userSpaceOnUse" gradientTransform="matrix(0 -19.8215 18.4406 0 7.314 23.54)"><stop stop-color="#FD5"/><stop offset=".1" stop-color="#FD5"/><stop offset=".5" stop-color="#FF543E"/><stop offset="1" stop-color="#C837AB"/></radialGradient><radialGradient id="b" cx="0" cy="0" r="1" gradientUnits="userSpaceOnUse" gradientTransform="matrix(1.73955 8.68793 -35.82101 7.1723 -1.351 3.44)"><stop stop-color="#3771C8"/><stop offset=".128" stop-color="#3771C8"/><stop offset="1" stop-color="#60F" stop-opacity="0"/></radialGradient></defs></svg>