<svg xmlns="http://www.w3.org/2000/svg" width="100" height="52" fill="none"><path fill="#9B9B9B" d="M84.121 40.422V42.5H98v-9.37h-2.022v7.292H84.12Zm0-30.922v2.078h11.857v7.292H98V9.5H84.121Zm-7.157 16.072v-4.827h3.172c1.547 0 2.102.53 2.102 1.976v.855c0 1.487-.535 1.996-2.102 1.996h-3.172Zm5.036.856c1.447-.387 2.458-1.773 2.458-3.422 0-1.04-.396-1.976-1.15-2.73-.951-.937-2.22-1.406-3.866-1.406h-4.46v14.26h1.982v-5.684h2.974c1.527 0 2.141.652 2.141 2.282v3.402h2.023v-3.076c0-2.24-.516-3.096-2.102-3.34v-.286Zm-16.694.468h6.107v-1.874h-6.107v-4.278h6.702V18.87h-8.724v14.26h9.021v-1.875h-6.999v-4.359Zm-6.642.754v.978c0 2.057-.734 2.73-2.577 2.73h-.437c-1.844 0-2.736-.612-2.736-3.443v-3.83c0-2.852.932-3.443 2.776-3.443h.396c1.805 0 2.38.693 2.4 2.608h2.18c-.198-2.811-2.022-4.583-4.758-4.583-1.328 0-2.439.428-3.271 1.242-1.25 1.202-1.943 3.24-1.943 6.09 0 2.75.594 4.788 1.824 6.05a4.433 4.433 0 0 0 3.112 1.284c1.19 0 2.28-.49 2.835-1.548h.278v1.344h1.824v-7.353h-5.373v1.874h3.47Zm-17.487-6.906h2.162c2.042 0 3.152.53 3.152 3.382v3.748c0 2.851-1.11 3.381-3.152 3.381h-2.162v-10.51Zm2.34 12.386c3.787 0 5.194-2.954 5.194-7.13 0-4.237-1.506-7.13-5.234-7.13h-4.283v14.26h4.323Zm-13.898-6.234h6.106v-1.874H29.62v-4.278h6.7V18.87h-8.723v14.26h9.021v-1.875H29.62v-4.359ZM17.92 18.87h-2.022v14.26h9.12v-1.875h-7.098V18.87ZM2 33.13v9.37h13.879v-2.078H4.022V33.13H2ZM2 9.5v9.37h2.022v-7.292H15.88V9.5H2Z"/></svg>