<svg width="24" height="24" fill="none" xmlns="http://www.w3.org/2000/svg"><path d="M12 24c6.627 0 12-5.373 12-12S18.627 0 12 0 0 5.373 0 12s5.373 12 12 12Z" fill="#FF4500"/><path d="M20 11.866a1.76 1.76 0 0 0-1.75-1.776c-.472 0-.902.19-1.218.495-1.204-.873-2.853-1.44-4.688-1.514l.803-3.814 2.61.568c.028.67.573 1.208 1.247 1.208.688 0 1.247-.568 1.247-1.267 0-.698-.56-1.266-1.247-1.266-.488 0-.918.291-1.119.713l-2.91-.626a.301.301 0 0 0-.23.044.282.282 0 0 0-.128.204l-.89 4.25c-1.863.06-3.54.627-4.76 1.515a1.746 1.746 0 0 0-1.218-.495c-.975 0-1.749.8-1.749 1.776 0 .728.43 1.34 1.032 1.616-.029.175-.043.35-.043.539C4.99 16.772 8.13 19 12 19s7.01-2.213 7.01-4.964c0-.175-.014-.364-.042-.539A1.795 1.795 0 0 0 20 11.867ZM7.986 13.133c0-.699.559-1.267 1.247-1.267.688 0 1.247.568 1.247 1.267S9.921 14.4 9.233 14.4c-.688.014-1.247-.568-1.247-1.267Zm6.982 3.363c-.86.873-2.495.932-2.968.932-.487 0-2.122-.073-2.968-.932a.33.33 0 0 1 0-.466c.13-.13.33-.13.459 0 .545.553 1.692.742 2.51.742.816 0 1.978-.189 2.508-.742.13-.13.33-.13.459 0a.359.359 0 0 1 0 .466Zm-.23-2.082a1.258 1.258 0 0 1-1.247-1.266c0-.7.56-1.267 1.247-1.267.689 0 1.248.568 1.248 1.267 0 .684-.56 1.266-1.248 1.266Z" fill="#fff"/></svg>