<svg width="118" height="56" fill="none" xmlns="http://www.w3.org/2000/svg"><path fill-rule="evenodd" clip-rule="evenodd" d="M6.474 16.066H16.4c1.566 0 2.348 0 2.947.303.526.264.952.689 1.22 1.21.306.594.306 1.37.306 2.924v1.647H2v-1.647c0-1.554 0-2.33.305-2.924a2.765 2.765 0 0 1 1.222-1.21c.598-.303 1.38-.303 2.947-.303Zm14.401 11.232h-6.292l.003.865v11.303h1.816c1.566 0 2.348 0 2.948-.303a2.782 2.782 0 0 0 1.22-1.21c.305-.594.305-1.37.305-2.925v-7.73Zm-12.585.468H2v7.731c0 1.554 0 2.33.305 2.922.269.523.695.948 1.222 1.212.598.303 1.38.303 2.947.303H8.29V27.766Zm24.836 3.507c0 2.382 1.31 3.729 3.833 3.729.897 0 1.527-.143 1.989-.312v-2.31c-.413.169-.85.241-1.432.241-.922 0-1.455-.507-1.455-1.612v-6.615h2.788v-2.19h-2.788v-2.766h-2.935v2.767H31.43v2.189h1.697l-.001 6.88Zm15.296-.889c0 1.612-1.334 2.55-3.13 2.55-1.454 0-2.037-.699-2.037-1.755 0-1.541 1.43-2.047 3.662-2.047h1.505v1.252Zm-8.077.914c0 2.622 1.915 3.729 4.245 3.729 1.94 0 3.055-.699 3.879-1.782v1.541h2.886v-8.251c0-3.44-2.23-4.594-5.068-4.594-2.838 0-5.189 1.226-5.433 4.16h2.837c.147-1.25.898-1.971 2.426-1.971 1.723 0 2.305.841 2.305 2.526v.65h-1.577c-3.639 0-6.5 1.057-6.5 3.99v.002Zm13.428 3.488V22.205h2.935V24.2c.607-1.227 2.013-2.262 4.099-2.262 2.546 0 4.341 1.47 4.341 4.933v7.914h-2.935v-7.65c0-1.9-.776-2.766-2.521-2.766-1.651 0-2.984 1.01-2.984 3.007v7.409h-2.935Zm23.22-6.591c0 2.405-1.479 3.848-3.516 3.848-1.892 0-3.347-1.443-3.347-3.776v-.193c0-2.285 1.26-3.848 3.444-3.848 2.11 0 3.42 1.418 3.42 3.8l-.002.169Zm-9.725 7.024c.34 2.405 2.133 4.186 6.112 4.186 3.928 0 6.427-1.853 6.45-5.558V22.205h-2.935v1.924c-.727-1.251-1.987-2.188-4.073-2.188-3.274 0-5.7 2.645-5.7 6.181v.17c0 3.631 2.45 5.988 5.627 5.988 1.868 0 3.444-1.13 4.148-2.333v1.852c0 2.262-1.262 3.393-3.542 3.393-1.916 0-2.886-.723-3.128-1.973h-2.959Zm21.096-.193c-3.735 0-6.428-2.43-6.428-6.398v-.192c0-3.898 2.693-6.495 6.306-6.495 3.152 0 5.99 1.852 5.99 6.35v.841h-9.288c.096 2.382 1.31 3.729 3.492 3.729 1.771 0 2.692-.697 2.91-1.924h2.838c-.413 2.646-2.57 4.09-5.82 4.09Zm-3.372-7.841h6.329c-.144-2.166-1.26-3.128-3.08-3.128-1.768 0-2.958 1.18-3.249 3.128Zm11.328-4.98v12.581h2.935v-7.53c0-1.924 1.334-2.886 2.789-2.886 1.43 0 2.255.793 2.255 2.646v7.77h2.935v-7.53c0-1.924 1.334-2.886 2.79-2.886 1.454 0 2.253.793 2.253 2.646v7.77h2.935v-7.963c0-3.464-1.89-4.882-4.219-4.882-1.576 0-3.323.697-4.293 2.262-.63-1.566-1.939-2.262-3.59-2.262-1.867 0-3.25 1.01-3.855 2.189v-1.924H96.32Z" fill="#B4B6B8"/></svg>