<svg width="24" height="24" fill="none" xmlns="http://www.w3.org/2000/svg"><path fill-rule="evenodd" clip-rule="evenodd" d="M22.956 3.39c.03.084.046.262.044.44-.001.127-.016.245-.029.431-.116 1.893-3.63 16.031-3.63 16.031s-.21.828-.963.855c-.274.011-.607-.045-1.007-.387-.792-.683-2.632-1.987-4.34-3.167a42.914 42.914 0 0 0-2.61 2.388c-1.512 1.511-1.316 0-1.316 0l.463-4.928.01.009a.437.437 0 0 1 .057-.091s8.895-7.906 9.13-8.737c.02-.065-.05-.096-.141-.069-.593.218-10.834 6.686-11.964 7.398-.066.042-.25.016-.25.016l-4.97-1.618s-.592-.242-.403-.788c.04-.113.12-.209.357-.374 1.101-.767 20.378-7.696 20.378-7.696s.544-.183.867-.062c.145.057.239.12.317.35Z" fill="#34AADF"/></svg>