<svg xmlns="http://www.w3.org/2000/svg" width="111" height="52" fill="none"><path fill="#B4B4B4" fill-rule="evenodd" d="M11.411 12.5c3.66 0 6.666 2.841 6.666 6.265l.003 2.067h2.743v14.341L11.41 39.5 2 35.172V20.768h2.744v-2.003c0-3.423 3.007-6.265 6.667-6.265Zm0 3.359c-1.83 0-3.269 1.292-3.269 2.906v2.003h6.537v-2.003c0-1.614-1.438-2.906-3.268-2.906Zm-.003 19.574 5.624-2.586v-8.655H5.786v8.657l5.621 2.584ZM40.3 20.768H28.47v3.424h3.987v11.045h3.79V24.192H40.3v-3.424Zm8.563.064c3.006 0 5.033 1.873 5.033 4.78 0 2.39-1.438 3.747-2.807 4.264l3.203 5.36h-4.384l-2.68-4.843h-1.437v4.843h-3.792V20.833h6.864Zm-3.072 6.202h2.614c.98 0 1.634-.582 1.634-1.486 0-.84-.653-1.422-1.634-1.422h-2.614v2.908Zm20.458-6.266H55.66v14.469h10.589v-3.36h-6.798v-2.324h6.602v-3.294h-6.602v-2.132h6.798v-3.359Zm13.663 7.235c0-4.264 3.136-7.43 7.58-7.43v.001c4.445 0 7.647 3.167 7.647 7.43 0 4.264-3.268 7.429-7.647 7.429-4.38 0-7.58-3.168-7.58-7.43Zm3.854.003c0 2.386 1.504 4.066 3.726 4.066s3.791-1.68 3.791-4.067c0-2.386-1.569-4.067-3.791-4.067s-3.726 1.613-3.726 4.068Zm24.839-2.393c0 2.389-1.439 3.746-2.811 4.263l3.205 5.36h-4.379l-2.68-4.843h-1.44v4.843h-3.791V20.833h6.862c3.007 0 5.034 1.872 5.034 4.78Zm-8.105 1.42h2.614c.981 0 1.634-.58 1.634-1.485 0-.84-.653-1.422-1.634-1.422H100.5v2.908Zm-21.244-6.265H68.08v3.424h6.079l-6.079 8.138v2.907h11.177v-3.423h-6.078l6.078-8.14v-2.906Z" clip-rule="evenodd"/></svg>