<svg width="24" height="24" fill="none" xmlns="http://www.w3.org/2000/svg"><path fill-rule="evenodd" clip-rule="evenodd" d="M23.5 6.623A3.01 3.01 0 0 0 21.377 4.5C19.507 4 12 4 12 4s-7.502 0-9.377.5A3.012 3.012 0 0 0 .5 6.623C0 8.493 0 12.4 0 12.4s0 3.906.5 5.777A3.011 3.011 0 0 0 2.623 20.3c1.875.5 9.377.5 9.377.5s7.506 0 9.377-.5a3.012 3.012 0 0 0 2.123-2.123c.5-1.871.5-5.777.5-5.777s0-3.906-.5-5.777Z" fill="#FF3000"/><path fill-rule="evenodd" clip-rule="evenodd" d="M9.602 16V8.798l6.234 3.6-6.234 3.6Z" fill="#fff"/></svg>